<?xml version="1.0" encoding="UTF-8"?><svg id="a" xmlns="http://www.w3.org/2000/svg" viewBox="0 0 301.02 298.91"><defs><style>.b{fill:#fff;}.c,.d{fill:#be1622;}.d{stroke:#fff;stroke-width:1.6px;}.e{fill:#b3b3b3;}</style></defs><path class="e" d="M187.61,3.41c-.27-.06-.53-.12-.8-.18,.19,.13,.37,.27,.53,.42,.27,.06,.54,.12,.81,.19-.16-.14-.34-.28-.54-.42m.6,.48c-.27-.06-.54-.12-.82-.19,.58,.53,.92,1.07,1.01,1.64,.27,.07,.55,.14,.83,.21-.1-.57-.43-1.13-1.02-1.66m1.03,1.72c-.27-.07-.55-.14-.83-.21,.08,.57-.08,1.15-.46,1.74,.27,.08,.55,.16,.82,.24,.39-.6,.55-1.19,.46-1.76m-.5,1.82c-.27-.08-.55-.16-.82-.24-.4,.58-1.01,1.18-1.83,1.77,.27,.09,.53,.18,.79,.27,.83-.6,1.46-1.2,1.86-1.8m-1.95,1.86c-.27-.09-.53-.18-.79-.27-.84,.6-1.89,1.19-3.13,1.79,.25,.1,.5,.2,.74,.3,1.26-.6,2.33-1.21,3.18-1.82m-3.31,1.88c-.25-.1-.49-.2-.74-.3-1.25,.59-2.68,1.17-4.3,1.74,.22,.11,.44,.22,.67,.33,1.64-.58,3.1-1.18,4.37-1.77m-4.54,1.83c-.22-.11-.44-.22-.66-.33-1.64,.58-3.45,1.14-5.43,1.68,.19,.12,.38,.24,.58,.36,2.01-.56,3.86-1.12,5.52-1.71m-5.73,1.77c-.19-.12-.38-.24-.58-.36-1.97,.54-4.11,1.06-6.4,1.56,.16,.13,.32,.26,.47,.38,2.32-.5,4.49-1.04,6.5-1.58m-6.74,1.64c-.16-.13-.31-.26-.47-.39-2.31,.5-4.77,.97-7.36,1.42,.12,.13,.23,.27,.35,.41,2.64-.45,5.13-.93,7.48-1.43m-7.75,1.48c-.12-.14-.23-.27-.34-.41-2.26,.38-4.62,.74-7.07,1.07-.35,.05-.7,.1-1.05,.14l.21,.43,1.07-.14c2.49-.34,4.88-.7,7.18-1.09m-8.55,1.27c-.07-.14-.14-.29-.2-.43-2.82,.37-5.64,.68-8.45,.94,.02,.15,.04,.29,.07,.44,2.85-.27,5.72-.58,8.58-.95m-8.88,.98c-.02-.15-.04-.3-.06-.45-2.78,.26-5.54,.46-8.26,.62-.02,.15-.04,.3-.07,.46,2.76-.16,5.56-.37,8.39-.63m-8.67,.64c.02-.15,.05-.31,.07-.46-2.72,.15-5.41,.26-8.01,.31-.07,.15-.14,.31-.2,.46,2.65-.05,5.37-.16,8.14-.31m-8.41,.32c.07-.15,.14-.31,.2-.46-2.6,.05-5.12,.05-7.55,0-.11,.15-.22,.31-.33,.46,2.47,.05,5.03,.04,7.68,0m-7.93,0c.12-.15,.23-.31,.34-.46-2.41-.05-4.71-.15-6.89-.29-.15,.15-.3,.3-.45,.45,2.22,.15,4.56,.25,7,.3m-7.23-.31c.15-.15,.3-.3,.45-.46-2.19-.15-4.25-.34-6.16-.58-.18,.15-.36,.3-.55,.45,1.94,.25,4.04,.44,6.26,.59m-6.46-.62c.19-.15,.37-.3,.55-.44-1.89-.24-3.63-.53-5.19-.87-.21,.14-.42,.29-.64,.43,1.59,.34,3.36,.63,5.27,.88m-5.44-.91c.21-.14,.42-.29,.64-.43-1.56-.34-2.95-.72-4.13-1.15l-.71,.41c1.2,.44,2.61,.82,4.2,1.17m-4.32-1.21c.24-.14,.47-.28,.71-.42-1.16-.42-2.12-.9-2.86-1.41-.25,.13-.5,.26-.75,.39,.75,.52,1.73,1,2.9,1.44m-2.98-1.49c.26-.13,.5-.26,.76-.39-.73-.52-1.19-1.06-1.42-1.62-.26,.12-.52,.24-.78,.36,.23,.57,.7,1.12,1.44,1.65m-1.46-1.7c.26-.12,.52-.24,.78-.36-.2-.55-.17-1.12,.09-1.7-.26,.11-.52,.22-.78,.33-.26,.59-.29,1.17-.09,1.73m.11-1.8c.26-.11,.52-.22,.78-.33,.27-.58,.78-1.18,1.49-1.77-.25,.1-.5,.2-.75,.3-.73,.6-1.24,1.21-1.51,1.8m1.59-1.86c.25-.11,.5-.2,.75-.3,.73-.59,1.66-1.19,2.79-1.78-.24,.09-.47,.18-.71,.27-1.15,.6-2.1,1.21-2.83,1.81m2.95-1.87c.23-.09,.47-.18,.71-.27,1.15-.59,2.5-1.19,4.03-1.77-.21,.08-.43,.16-.64,.24-1.56,.59-2.92,1.19-4.09,1.8m4.25-1.86c.21-.08,.42-.16,.64-.24,.12-.04,.24-.09,.37-.14l-.9,.34s-.07,.03-.1,.04"/><path class="e" d="M162.87,.13c-.28-.01-.57-.02-.85-.03,.1,.07,.18,.13,.26,.2,.29,.01,.58,.03,.86,.04-.08-.07-.17-.14-.27-.21m.3,.24c-.29-.02-.58-.03-.86-.04,.29,.26,.45,.53,.5,.81,.3,.02,.59,.05,.88,.07-.05-.29-.22-.57-.52-.84m.52,.87c-.29-.03-.59-.05-.88-.07,.04,.28-.04,.57-.23,.86,.29,.03,.58,.07,.88,.1,.19-.3,.27-.6,.23-.89m-.26,.92c-.29-.04-.58-.07-.88-.11-.19,.29-.5,.58-.9,.88,.28,.04,.56,.09,.84,.13,.42-.31,.74-.61,.94-.91m-.98,.94c-.28-.04-.56-.09-.84-.13-.42,.3-.94,.59-1.55,.89,.26,.05,.53,.11,.79,.17,.64-.3,1.18-.61,1.61-.92m-1.67,.95c-.26-.06-.52-.11-.78-.17-.62,.29-1.34,.58-2.13,.87,.24,.06,.47,.13,.71,.2,.83-.29,1.57-.59,2.21-.89m-2.29,.92c-.24-.06-.47-.13-.71-.2-.81,.28-1.71,.57-2.69,.83,.2,.08,.41,.15,.61,.23,1.02-.28,1.95-.57,2.79-.87m-2.89,.89c-.2-.08-.41-.15-.61-.23-.98,.27-2.04,.53-3.17,.77,.17,.08,.33,.17,.5,.26,1.17-.26,2.27-.52,3.28-.8m-3.41,.82c-.16-.09-.33-.17-.49-.26-1.14,.25-2.36,.48-3.64,.7,.12,.09,.24,.19,.36,.28,1.33-.23,2.59-.47,3.78-.73m-3.91,.75c-.12-.1-.24-.19-.36-.28-1.12,.19-2.29,.36-3.5,.53-.17,.03-.35,.05-.52,.07,.07,.1,.14,.2,.21,.31,.18-.03,.36-.05,.54-.07,1.26-.17,2.47-.35,3.63-.55m-4.32,.64c-.07-.1-.14-.2-.21-.31-1.4,.18-2.8,.34-4.19,.47,.02,.11,.04,.21,.06,.32,1.44-.13,2.89-.29,4.33-.48m-4.48,.5c-.02-.11-.04-.22-.06-.32-1.38,.12-2.75,.23-4.09,.3-.03,.11-.06,.22-.09,.34,1.39-.08,2.81-.19,4.24-.32m-4.38,.33c.03-.11,.06-.23,.09-.34-1.35,.08-2.68,.13-3.97,.15-.08,.11-.16,.22-.23,.34,1.34-.03,2.71-.08,4.11-.16m-4.25,.16c.08-.11,.16-.23,.24-.34-1.29,.03-2.54,.03-3.74,0-.12,.11-.25,.22-.37,.34,1.25,.02,2.54,.02,3.87,0m-4.01,0c.13-.11,.25-.23,.38-.34-1.19-.03-2.34-.07-3.41-.14-.17,.11-.33,.22-.5,.33,1.12,.08,2.3,.12,3.53,.15m-3.65-.16c.17-.11,.33-.22,.5-.33-1.08-.07-2.11-.17-3.05-.29-.2,.11-.41,.21-.61,.32,.98,.12,2.04,.22,3.16,.3m-3.26-.31c.2-.11,.41-.21,.61-.32-.94-.12-1.8-.26-2.57-.43-.23,.1-.47,.2-.7,.31,.8,.17,1.7,.32,2.66,.44m-2.75-.46c.24-.11,.47-.2,.71-.31-.78-.17-1.46-.36-2.05-.57-.26,.1-.52,.19-.78,.29,.6,.22,1.32,.42,2.12,.59m-2.18-.61c.26-.1,.52-.19,.78-.29-.58-.21-1.05-.44-1.42-.7-.27,.09-.55,.18-.83,.26,.38,.27,.87,.5,1.47,.73m-1.5-.75c.27-.09,.55-.18,.83-.26-.36-.26-.59-.53-.7-.81-.28,.08-.57,.15-.86,.23,.12,.29,.36,.57,.73,.83m-.74-.86c.28-.08,.57-.15,.85-.23-.1-.27-.08-.56,.04-.85-.29,.07-.57,.13-.86,.2-.13,.3-.15,.59-.04,.88m.05-.91c.29-.07,.57-.13,.86-.2,.13-.29,.39-.58,.74-.88-.27,.05-.55,.11-.82,.17-.37,.3-.63,.61-.77,.91m.81-.94c.27-.06,.55-.11,.83-.17,.36-.29,.82-.59,1.38-.88-.26,.04-.52,.09-.78,.14-.58,.3-1.06,.61-1.43,.91m1.49-.95c.26-.04,.51-.09,.77-.14,.57-.29,1.24-.59,2-.88-.24,.04-.47,.07-.7,.11-.79,.3-1.48,.6-2.07,.91m2.15-.94c.23-.04,.47-.07,.7-.1,.76-.29,1.61-.57,2.54-.84-.2,.02-.41,.05-.61,.07-.96,.28-1.84,.57-2.63,.87m2.73-.9c.2-.03,.41-.05,.61-.07,.94-.27,1.96-.54,3.07-.79,.02,0,.04,0,.05-.02-.17,.02-.33,.03-.5,.05-.02,0-.04,0-.06,.01-1.14,.26-2.2,.54-3.18,.82"/><path class="e" d="M115.83,3.02c-.26,.04-.52,.09-.78,.14-7.43,1.34-14.59,3.34-21.43,5.97-.24,.09-.47,.18-.71,.27-4.49,1.76-8.85,3.78-13.06,6.05l.55-.29c4.07-2.18,8.28-4.12,12.63-5.82,.23-.09,.47-.18,.71-.27,6.82-2.61,13.96-4.61,21.37-5.94,.26-.04,.51-.09,.77-.14,7.14-1.23,14.53-1.84,22.12-1.77-7.61-.05-15.02,.57-22.18,1.8"/><path class="e" d="M117.88,2.11c-.24,.03-.47,.07-.7,.11-6.73,1.03-13.22,2.74-19.41,5.08-.21,.08-.42,.16-.64,.25l-.62,.24,.55-.21c.08-.03,.16-.06,.24-.09,.21-.08,.42-.16,.64-.24,6.17-2.33,12.62-4.03,19.33-5.05,.23-.04,.47-.07,.7-.1,6.47-.94,13.17-1.25,20.05-.87-6.91-.36-13.63-.05-20.13,.9"/><path class="e" d="M120.5,1.24c-.2,.03-.41,.05-.61,.07-4.51,.57-8.88,1.55-13.11,2.91l.27-.08c4.17-1.34,8.49-2.3,12.94-2.86,.2-.02,.4-.05,.61-.07,5.61-.65,11.43-.67,17.41,0-6.02-.66-11.87-.64-17.51,.03"/><path class="c" d="M239,231.72c2.46-.28,4.53-1.81,4.92-2.12,.15-.12,.36-.31,.41-.5-.7-.36-5.11,.64-5.16,.65-2.52,.78-3.04,1.67-3.88,3.47-1.58,3.4-2.22,9.55-2.22,9.6,1.12-1.07,1.15-2.72,2.07-3.89,.16,.21,.16,.21,.59,1.2,.91,2.1,1.24,2.53,1.7,2.69,.06-.7,.18-2.15,.18-4.4q0-1.79,.11-1.99c.14-.27,.36-.67,1.39-1.64,1.21-1.14,1.27-1.21,1.36-1.62-.31,.72-3.93,1.3-4.41,.69-.2-.26,.22-1.82,2.93-2.14m-5.62-5.04c.54-1.51,2.01-2.26,2.85-3.51,1.18-1.76-1.63-3.28-2.33-3.16-.07,0-.15,.04-.22,.06-.12,.05-.47,.21-.76,.44-2.13,1.73-3.81,3.92-5.95,5.64-2.92,2.35-6.18,4.24-9.08,6.62-.16,.13-.36,.32-.48,.48-2.24,3.06-1.36,7.66,.4,8.49,.06,.03,7.14,1.75,9.4-.53,1.88-1.9,6.05-9.34,6.33-10.49,.32-1.36-.65-2.66-.16-4.03m3.32,20.74c.03-.06,.04-.11,.05-.15-.21,.01-.34,.04-.51,.09-1.27,.36-1.41,.98-1.38,1,.17,.08,1.52-.32,1.83-.94m-2.98-17.15h0ZM97.39,162.02m143.19,84.89c.08-.05,.18-.13,.25-.19-.27,.06-.34,.08-.66,.17-2.6,.76-4.21,2.04-6.63,5.3,1.59-1.14,4.04-2.94,7.04-5.27M151.7,46.11c-.45-.85-.83-1.61-1.29-2.54,1.24,.07,1.67,.17,1.63,.96-.02,.43-.2,1.1-.34,1.58m-43.43,115.33c-2.71,5.63-8.03,10.59-9.81,5.9-.4-1.05-.47-2.51-.53-3.69-.07-1.35-.15-1.47-.38-1.61h0c-.39,.14-.47,.31-1.22,2.02-.38-.47-.96-1.17-1.3-2.18l-2.73-9.94c-.09-.55-.02-3.64,1.52-3.44,.09,.01,2.25,.35,3.96,4.83,.67,1.76,1.44,3.76,2.31,4.51,.34,.3,.48,.34,1.22,.55,1.59,.44,5.83,1.62,6.66,2.36,.29,.26,.44,.42,.31,.7m86.51,31.53c3.34,1.01,4.06,11.34,2.77,17.55-.41,1.98,1,23.43,10.16,24.75-1.55-10.91-8.68-20.92-5.28-32.63q8.92,9.81,8.65,13.54c2.74-3.46,6.31-6.17,8.78-9.87,3.05-4.55,2.3-10.37,5.02-15.03-17.25,.73-7.93-14.39-7.81-14.54,2.41-3.04,3.66-1.89,4.87-.77,2,1.85,14.29-7.46,18.31-17.8,1.33-3.42,4.86-12.49,.06-21.26q-3.94-7.2-1.56-15.87-7.25-1.17-8.28-2.7c.61-2.33,1.02-3.87,3.58-7.1q.5,3.9,1.62,5.23c1.45-1.03,2.38-2.67,4.03-3.47,2.78,2.27,6.49,14.65,6.52,14.76,.84,.61,.84,.6,.84,.6h0c1.11-1.39,1.53-1.92,1.83-5.12,.5-5.34-5.52-8.82-4.11-14.42,1.25-4.97,5.36-8.79,5.64-14.15,.03-.53,.03-1.25,.01-1.79q-.04-1.12-5.18-19.21c3.51,4.11,5.21,9.38,8.69,13.52,.35-.08,.83-.19,1.19-.27q-5.4-12.29-12.71-20.08c0,.69-.32,1.64-.75,2.18q-4.34,.24-7.63-1.98-.09-8.91,3.34-15.25l.19-.15c.73,.31,1.7,.77,2.39,1.17,.34-.14,.79-.34,1.12-.48-.36-3.05-2.65-5.25-3.58-8.04,.75,.03,1.76,.33,2.38,.75q-.24-1.19-1.63-3.55c1.78,1.24,2.95,2.06,4.19,5.83,1.2,3.63,3,9.12,16.12,22.1-1.84-10.04-13.09-14.7-14.35-25.08,.29-.25,.69-.58,.99-.82q-.38-3.93-11.99-14.48,3.11,.58,3.81,.84-.22-.33-4.27-3.98c-.71-.5-1.84-.86-2.68-1.09,0,.11-.03,.26-.04,.37-2.87-.18-5.63-1.21-8.54-.99-.08,.36-.18,.84-.26,1.21,.5,.34,1.16,.8,1.66,1.14-.77-.04-1.79-.33-2.46-.69-.12,.8-.48,1.87-.92,2.55-3.7-.59-12.67-1.79-15.96,0v1.25c.3,.25,.71,.58,1.01,.82-.23,.3-.54,.7-.77,1.01-.8,.06-1.87,.11-2.67,.13-.05,.41-.13,.94-.19,1.35-3.49-.41-10.08-6.41-10.47-1.45-2.68,.38-5.24-1.11-7.93-.52-.77,.16-.77,.16-.77,.16-.34,.12-.79,.29-1.12,.41-.05,.37-.11,.87-.16,1.24-.43,.06-1.01,.15-1.44,.21-.18-.31-.42-.73-.6-1.05q1.53-2.05,2.44-3.49c-1.03-.94-4.14-3.81-10.77-3.3-2.54,3.55-3.82,5.33-10.16,6.19-1.13,2.45-3.97,1.31-5.62,2.67,.34,.95,.97,2.16,1.58,2.96q-1.26-.08-4.1-1.27c-.43,.71-.9,1.72-1.14,2.52-.36-.79-.81-1.86-1.11-2.68-3.84,3.63,1.78,9.99-3.78,13.12q1.86-15.14-1.27-13.55s-3.55,2.68-2.13,9.36c-3.72-.34-5.19-6.3-9.76-4.23,.43,.73,.9,1.78,1.1,2.6q-1.76,.13-15.99,2.14c.43-.59,.84-1.5,.99-2.22-.34-.3-.8-.7-1.13-.99-4.1,2.47-6.25,8.01-12.13,7.7-.12,.39-.28,.91-.4,1.3-.36,.04-.85,.08-1.21,.12-.58-1.59-.72-1.97,1.37-6.38,8.5,4.05,7.57-.96,7.43-1.54-1.73-7.54-13.29-13.11-23.2-5.26l.06,.1c.8-.07,1.85-.27,2.63-.47q-27.68,15.99-26.54,19.21,1.54,.01,4.13-.94c-.21,3.15-2.16,5.65-3.12,8.52,.19,.32,.44,.73,.64,1.05,9.45-3.44,13.52-13.33,21.8-18.17,3.69-2.16,3.88-2.09,5.4-1.61q-11.8,10.98-11.28,12.2c2.25,.39,4.49-.71,6.74-.04,.14,.36,.33,.85,.46,1.22-6.97,2.33-12.02,8.31-19.23,10.19-.56,.14-5.53,1.3-9.2-2.75,.68-2.96,3.64-4.23,4.96-6.72l-23.22,13.92c-.89,.56-1.89,1.58-2.6,2.37-.21-.3-.49-.71-.7-1.02-.43-.03-1-.05-1.43-.08q-8.27,15.97-12.22,13.04c-2.46,3.33-6.63,13.6-7.05,16.28,.26,.28,.6,.66,.86,.95-.07,.79-.06,1.85,.03,2.63,2.89,1.5,4.09,2.12,16.7-14.79,.38,.04,.88,.11,1.25,.15,.18,.32,.42,.74,.6,1.05,1.94,.45,3.43-.92,5.17-1.26,.05,.12,2.26,16.51,.31,19.02-.75-.04-1.75-.26-2.46-.52-.37,.24-.87,.55-1.24,.79-.28,1.5-.32,1.73,.89,3.8,.47,.02,1.1,.05,1.57,.08,2.21-2.51,3.38-5.65,5.08-8.47,.75,.4,1.63,1.18,2.1,1.88,1.92-6.26-7.02-14.24,.58-18.96q.07,.8,5.66,7.9c3.11,3.95-.22,8.46,1.07,12.57q2.05-1.52,3.94-1.9c2.57,4.87-2.67,10.22,.92,15.03,3.61,.4,7.09,1.77,10.8,1.43-.63,9.41-12.26,14.86-9.21,25.59q.21-.16,3.93-3.34,11.64,52.58,13.44,53.96c6.08,4.67,28.04-14.89,31.06-19.78,4.12-6.7-4.68-10.47-3.73-16.45,2.27-1.22,19.75,1.92,19.86,1.99,.39,.23,.86,.6,1.2,.89,3.87,3.16,2.29,9.06,6.13,12.24q1.22,1.01,5.49-2.64c4.8,13.93-1.58,30.7,10.83,42.7q2.03-2.39,6.85-19.65c1.8-6.46,7.73-9.96,11.03-15.34,3.08-5.02,5.52-8.98,12.93-9.16,4.49,5.71,3.91,13.03,6.21,19.44q1.04,.43,5.22-2.92m28.4,58.3h.01c.05,0,.11,0,.17,0h-.19Zm10.54-21.01h0Zm-4.64,21.74s-.04-.03-.06-.04h0s.04,.02,.05,.04m-69.99-31.82c.09,.18,.21,.34,.3,.51-1.01-.29-2.06-.6-2.57,1.46-.34,1.33-.07,3.99,.8,5.55,1.27,2.28,3.69,1,4.44-1.06,.09-.24,.17-.56,.21-.81,.27-2.05-3.13-5.64-3.17-5.66m74.63,10.09-9.43,20.55c-.07-.16-.24-.35-.39-.42l-5.28-1.93-9.67,.26q-.28,0-1.04,.19c-1.02,.75-.31,1.97,1.98,2.32,.64,.1,3.55,.38,14.27-.12,.04-.09,.09-.21,.13-.3m5.57,.85c.13-.25-.21-.86-.86-.7-.18,.06-.29,.13-.47,.3,.07,.48,.35,.64,.48,.69,0,0,0,0,.02,0h-.01s.04,0,.05,0c.42,.08,.79-.28,.81-.31M40.49,103.79h0ZM228.39,249.28s0-.02,0-.03c0,0,0,.02,0,.03-.02-.06-.06-.11-.42-.04-1.37,.34-2.08,1.19-1.91,1.34,.17,.14,1.43-.34,1.91-.51,0,0-.02,0-.02,0,0-.02,0-.04,0-.06l.02-.05c.13-.27,.37-.64,.42-.68,0,.02,0,.04,0,.05,0-.02,0-.04,0-.06m1.96,.07s-.05,.04-.06,.06c.09,.32,1.75,.33,2.31-.42,.15-.2,.35-.48-1.66-.25v.02c-.15,.24-.58,.58-.59,.58M40.45,103.85h0Zm-.02,.03h0Zm.03-.05s0-.02,.01-.02h0s0,.01-.01,.02m0,.02s0-.01,0-.02v.02h0m.02-.05h0m0,0h0Zm0,0h0m61.4,155.91h0s0,0-.01,0h.01Zm1.26,.98h.01s0,0-.01,0M40.43,103.91s0,0,0-.01c0,0,0,.01-.01,.02h0m62.84,156.87h0s.02,.02,.03,.03c0,0-.02-.02-.04-.03m0,0s-.08-.06-.11-.09c.04,.03,.07,.06,.11,.09h0ZM40.42,103.92h0Zm64.49,161.88c-.38-1.22-.68-1.75-1.03-2.35-1.58-2.74-1.57-3.06-1.57-3.26,.06,.03,.15,.07,.21,.11-.17-.2-.39-.35-.58-.52-.09,.17-.21,.39-.3,.55-.87,2.45-1.27,3.57-2.38,4.23-.73,.43-1.67,.4-2.31,1.04-.56,.57-.5,.83-.33,1.62,.1,.45,.41,1,.59,1.43,.09,.2,.2,.48,.29,.68,.87,2.03,1.13,4.31,2.59,6.08,2.17,2.65,4.78,3.23,5.56,2.8,.54-.29,.81-1.13,.74-2.3,0-.07-.98-8.47-1.49-10.1m-1.58-4.96l-.03-.02s.02,.02,.04,.03h0Zm-.5-.35s-.04-.06-.04-.06c-.04-.03-.09-.04-.14-.07-.02-.01-.04-.02-.06-.03h0c.2,.17,.22,.16,.23,.16h0m126.42-9.66s-.02-.02-.04-.03h0s.03,.02,.04,.03h0m19.22-46.66h.01s0,0-.01,0m1.5,2.1c.07-.03,.27-.16,.3-.28,.11-.38-.44-2.41-1.38-2.12-.16,.06-.26,.13-.41,.3-.03,.03-.04,.04-.06,.09-.24,.6,.75,2.37,1.56,2.01m-1.53-2.06h0s-.03,.05-.05,.07h0s.03-.04,.05-.06h0m-1.71,31.7s0,0,0,.01c0,.03,0,.04,.03,.04,.26-.3,.4-.46,.42-.5h0s-.38,.32-.44,.45m-5.43-36.27c.42,4.61,.93,6.59,1.53,5.87,.55-.65,.74-1.53,1.3-2.18,.07-.07,.4-.42,.94-.39h0q.09,0,2.44,.26c.11-.21,.29-.5,.38-.73,.12-.29,.23-.73,.17-1.04-.14-.73-1.02-.89-1.72-1.03-.94-.18-1.56-.5-1.55-1.5,0-.68,.33-1.58,.73-2.72,.75-2.11,.47-3.57,.24-4.24-.52-1.51-1.48-1.14-1.84-1-2.12,1.8-2.69,7.99-2.63,8.69m8.02,4.02s.04,.06,.06,.09h0s-.04-.06-.05-.09m-2.72,33.31c2.84-.66,3.08-.9,3.15-.98,.3-.3-.75-.4-1.24-.4-.67,.01-1.07,.14-1.34,.22-.73,.29-.96,.58-1.16,1.05,.14,.12,.27,.18,.58,.1m26.42-8.74s-.1,.1-.14,.14c-1.47,1.5-2.83,2.81-4.4,4.27,1.36,.98,3.44-2.19,4.34-4,.06-.12,.14-.29,.2-.41m-5.88,5.07c-.53-1.67-1.03-3.25-3.73-4.1-.33-.1-.79-.21-1.13-.21-3.01,.04-3.8,3.36-6.26,4.22-.71,.25-.6-.79-.55-1.28,.21-2.11,.11-3.09-1.08-2.63-.68,.35-1.23,.78-2.46,1.93,1.07,1.22,1.03,1.36,.67,2.76-.12,.49-.16,.83-.11,1.04,.23,.86,1.59,.87,2.59,.88,.62,0,2.27,.03,2.52,.83q.28,.93-2.48,4.9c.15,.24,2.88,.86,3.52,.58,1.77-.77,2.34-2.78,3.89-3.77,.33,.1,.4,.16,.9,1.55,.34,.94,.4,.99,.78,1.29,.5-.08,.6-.09,1.1-.72,.2-.25,.54-.67,.36-2.25-.18-1.56,.27-2.29,1.62-4.49-.05-.17-.11-.38-.16-.55m-75.11-5.51s-.01,0-.02,0q-1.58,.24-1.91,.34c1.02-.18,1.66-.29,1.87-.33,.02,0,.04,0,.06-.01m81.72,4.25s-.04,0-.11,.06c-.22,.19-.5,.54-1.29,1.5,.08,.06,.3,.24,.57,.5l.02,.02c.78-1.64,.89-2.02,.81-2.08m-70.23,15.84c1.48,1.48,3.65,.34,4.34-.77,.12-.19,1.14-1.97,.12-4.79,.02,.03,.03,.07,.04,.09-.08-.17-.19-.4-.28-.57-.18-.36-.37-.72-.55-1.08,.22,.42,.43,.84,.65,1.27-4.89-8.89-13.46-12.02-18.05-13.71h0v-.02q.12-.1,.32-.17s-.09,.02-.13,.02c-.3,.05-.6,.11-.91,.16q12.55,16.69,13.18,17.77c.71,1.22,1,1.51,1.28,1.8m44.06-29.23c0,.06,0,.14,0,.19,.32-.27,1.15-1,1.64-3.33,.5-2.37,.27-4.89-.26-4.74-1.96,.93-6.06,4.64-6.42,6.05-.02,.86,.74,1.01,2.23,.99,.25,0,2.07,.22,2.81,.83m8.92,26.99c-6.25,9.13-10.02,14.64-10.86,10.24-.54-2.83,2.57-3.52,3.29-5.62q-1.95-1.84-10.4,5.82c-1.12,1.01-1.58,.82-2.03,.64-.68-.28-1.33-.54-3.08,.85q-5.15,4.11-5.58,4.36c-.16,.1-.38,.22-.54,.32-2.17,1.34-3.72,3.45-5.92,4.74-3.72,2.19-7.94,3.41-11.45,5.99-.42,.31-1.06,.78-1.78,1.74-.02,.03-3.33,5.09-3.95,6.34-1,2-3.61,2.67-4.14,5.06-.02,.11,.03,.27,.04,.38,1.19,.28,9.34-2.56,11.65-3.69,2.29-1.13,7.74-3.65,8.77-2.71q-.16,.66-.55,1.13,.26,.06,2.78-1.34-3.21,2.57-3.78,3.06c2.08,.38,15.39-8.17,21.93-13.34,6.17-4.88,7.8-7.24,8.78-8.64-.04,.07-.1,.18-.14,.25,.12-.23,.29-.54,.42-.77,6.47-10.93,7.35-14.32,7.43-15.27-.1-.11-.22-.24-.32-.35-.16,.24-.38,.57-.55,.81m-9.02-14.49c1-1.17,1.57-1.85,1.75-2.32,.21-.55-.06-.87-.6-1.52-.37,1.3-.75,2.57-1.16,3.84m-.71-28.03h0c-.06,0-.12-.02-.19-.02,.06,0,.12,.01,.18,.02m-.19-.02h0Zm-.94,4.15s.03-.05,.04-.07c-.25-.09-.44-.1-.73-.02-1.01,.35-1.65,1.67-.79,2.12h0s-.03-.02-.04-.02c.03,.01,.05,.03,.09,.04-.02,0-.03-.02-.04-.03h.01c.34,.12,.99-1.12,1.47-2.02m-2.66-25.27l.02,.04v-.02s-.02-.01-.02-.02m-.41-.6s.02,.03,.03,.04h0l-.03-.04m4.2,21.74c.06,0,.12,.01,.18,.02h0c-.07-.01-.13-.02-.2-.02h0Zm-4.17,13.44s0-.05,.02-.07c-.01,.02-.02,.05-.02,.07h0m.4-34.55c.21,.32,.43,.64,.64,.96q1.92-6.12,1.93-7.4c0-1.39-.63-1.77-1.21-1.53-.02,.02-2.21,1.97-1.49,5.93,.3,1.64,.33,1.89,.25,2.14q-.06-.03-.12-.11m-.42,34.62h0Zm-1.34-17.76h0c.03,.37,.05,.73,.08,1.1,0-.19-.03-.37-.04-.56-.02-.18-.03-.36-.04-.54m2.54,39.05s.07,0,.17-.06c.19-.12,.38-.27,.57-.4,.02-.02,.05-.04,.07-.05-.22-.42-.25-.47-.43-.41-.14,.05-.28,.14-.65,.41l.02,.08c.07,.21,.13,.44,.25,.44m-1.19-21.33s0-.02,.01-.04h0s0,.02-.01,.04m0,.03h0m0-.03h0Zm0,.01h0Zm4.37,2.55c.22-.06,.52-.17,.62-.32h0s-.01,0-.02,0c-.2,.15-.39,.25-.61,.32m-4.37-2.56h0Zm3.69,2.76c.23-.06,.45-.13,.68-.2h-.05c-.21,.07-.42,.14-.63,.2M124.14,41.92h0m0,0h0m0,0M112.45,6.5h0m32.33,21.87h.01s0,0-.01,0m-73.71-1.73c1.9-1.08,1.94-1.07,2-1.06,0,.1-.6,.51-1,.74-.64,.36-.95,.42-1.07,.44h0l-.18,.03c.09-.05,.17-.1,.26-.15M109.26,10.12c-.1,.04-.15,.06-.16,.07h0s.29-.05,.33-.06c.06-.02,.21-.06,.22-.08,0,0-.11,0-.2,.02,.56-.1,.71-.13,.74-.12,0,0-.6,.26-.76,.28q-.55,.08-.58,.07s.05-.05,.41-.19m.04-.01s.03,0,.04,0c-.03,0-.05,0-.07,.01,0,0,.02,0,.03,0m7.55-7.3c.41-.1,.37-.13,.33-.16-.04-.03,0-.05,.19-.11,.27-.07,.58-.14,1.19-.26-.01,.03,.02,.07-.01,.1-.03,.03-.14,.07-.2,.09-.31,.1-.83,.2-1.53,.35h.03m3.38-1.04c.19-.04,.77-.17,1.4-.29l-1.45,.3h.06ZM58.49,31.72l11.66-3.5c1.58-.6,4.08-2.26,4.89-2.8,1.88-1.25,3.5-2.87,5.62-3.76,0,.12-.03,.28-.04,.4,4.84,1.21,7.43-3.56,11.53-4.33,2.11-.4,3.51-2.19,5.51-2.8,3.11-.96,6.36-1.12,9.52-1.82q1.6-.35,2.31-.91c-.03-.16-.06-.37-.09-.53-.5-.12-1.01-.25-3.11-.15,1.69-.74,3.67-.38,5.27-1.43,1.45-.94,1.59-2.86,2.91-3.9l.12-.09c-.44,.04-.9,.08-3.05,.67,.76-.31,1.54-.57,2.31-.87-.27-.04-.62-.09-.89-.11q.18-.14,1.78-.64c-.11-.07-.27-.16-.38-.23,2.31-1.21,4.94-1.4,7.36-2.26,1.11-.47,2.12-1.15,3.28-1.54q-.83,.08-7.01,1.18c2.29-.49,4.62-.76,6.88-1.36-1.5,.1-4.86,.84-8.41,1.63,.15-.02,.34-.05,.49-.07q-.26,.07-2.36,.57c.26-.08,.6-.17,.86-.24q-1.16,.23-6.33,1.69l-.1,.02c-1.05,.28-1.51,.42-3.54,1.04,5.16-1.61,6.37-1.4,8.37-1.05-.37,.19-1,.51-5.97,.99,.19-.14,.45-.32,.64-.46-.89,.04-1.17,.05-5.35,1.59,.11-.06,.25-.16,.35-.22-.08,.02-11.18,3.55-26.45,11.82q.31-.24,1.15-.77c-.48,.21-11.9,5.32-29.18,20.74l-.27,.25-.08,.07c-1.13,1.05-2.3,2.15-3.18,3.08,8.9-7.56,11.29-9.59,13.03-10.31-.02,.12-.05,.28-.07,.4m12.44-4.95s.04,0,.05,0c0,0,0,0,0,0h0s-.04,0-.05,0m53.2,15.15h0s-.02,0-.02,0c0,0,.02,0,.03,0M112.44,6.5h0s0,0,0,0h0m2.88,16.24c.08,.17,.62,.18,1.84-.35,.1-.04,.22-.1,.32-.14,.49-1.51,.94-2.68,1.68-4.3,.08-.18,.06-.21,.02-.26-.02,0-.04,0-.07,0-.11,.03-.13,.04-.35,.12q-1.64,.69-1.87,.5-.96-.78-1.39-.61c-1.04,.41-1.87,2.05-1.88,2.13,0,.03-.06,.1-.37,.22q1.45-.24,1.53-.18c-.01,.09-.42,.58-1.18,.18-2.9,1.72-3.16,2.72-2.77,2.82,.46,.11,1.57-.41,2.47-.82,1.34-.63,2.86-1.34,3.13-1.14,0,.11,.02,.19-.57,.87-.37,.43-.65,.74-.54,.96m-2.85-16.25h0Zm11.64,35.44q-.51-1.14-.8-1.16c-.29,0-.62,.17-1.45,.64,.1,1.89,1.72,.87,1.86,.72h0s-.11,0-.34,.1c.21-.09,.44-.17,.65-.26,.03,0,.06-.02,.08-.03m-10.99-21.85s.06,0,.13-.02h0s-.09,0-.13,.02m9.78-.74c.5-.31,1.06-.66,.24-.86-.26-.05-.52-.06-.77-.11-.04,0-.09-.03-.15-.05-.78-.35-1.18-.39-1.57-.4-.66-.02-1.01,.35-1.13,.48,.68,.29,1.29,.72,1.97,1,.3,.13,.71,.27,.92,.2-.09,.04-.18,.09-.27,.13,.26-.11,.76-.39,.77-.39m1.26,22.58h0Zm131.02,48.34c.04,.22,.09,.51,.14,.73,.29,1.18,.79,2.28,1.11,3.44,.35,1.23,.35,2.52,.71,3.75,.14,.46,.87,2.4,1.11,2.45,.12-.21,.12-.82-.02-1.83,.32,.74,2.63-.57,2.84-1.15,0-.02,.72-2.05,.23-3.54-.3-.93-.94-1.36-1.25-1.57-1.54-1.05-3.33-1.65-4.9-2.64,.01,.11,.03,.25,.04,.35m-25.28-65.32h0s.01,.02,.02,.03c0-.01-.02-.02-.02-.03m.11,.17s-.06-.09-.09-.14c.04,.06,.08,.12,.12,.19,0-.02-.02-.04-.04-.05m25.07,112.21h0c.98-1.45,.98-3.76,.65-5.44-.28-1.46-1.12-3.78-2.46-3.29-.75,.4-1.11,1.34-1.1,1.42,.08-.03,.1-.04,.32-.27-.23,.26-.46,.52-.69,.78,1.54,2.17,2.45,4.08,3.26,6.8m4.83-34.96c-.97,1.3-.45,3.5,.21,6.29,.93,3.91,1.42,6.86-1.41,6.27,.41,3.84,.46,5.11-1.2,6.34-1.78,1.31-3.72,3.7-3.57,4.81,.27,1.95,1.6,.54,2.39-.31,1.61-1.71,2.52-2.42,4.04,1.31-.02-.04-.04-.08-.05-.12,.28,.42,.39,.5,.59,.63l.09,.03s.09-.11,.12-.17c.67-1.36,.69-2.96,1.58-4.24q1.7-2.42,1.94-2.97c.21-.48,.28-1.18,.32-1.7,.08-1.06-1.94-11.08-2.36-12.43-.23-.72-1.68-4.43-2.69-3.74m-1.5,23.43c-2.13,2.08-1.99,5.06-1.28,4.95,.27-.04,1.25-1.49,1.47-2.18,.16-.48,.29-1.18,0-2.39-.03-.13-.08-.32-.12-.45-.03,.02-.06,.05-.08,.08m-1.79,4.5c-.02,.07,0,.37,0,.37,0,0,0-.13,0-.36,0,0,0-.02,0-.02h0M196.42,25.11c.58,.18,.8,.11,.99,.02,.28-.14,1.07-.96,1.13-1.08-.02,0-.04,.02-.06,.02,0,0-.01-.02-.02-.03,.02-.04,.02-.05,.07-.12-.22-.06-.23-.07-.25-.08,.23,.02,.44,.15,.67,.17,.2,.01,.22,0,.3-.09,0-.09-.02-.33-.83-.88-1.82-1.23-2.5-.93-3.36-.57-.37,.18-1.13,.56-.54,1.69,.08,.16,.21,.4,1.9,.93m-35.03-2.68h0Zm0,0h0s0,0-.02,0c.02,0,.02,0,.04-.01,.25-.11,.58,.13,1.05,.47,1.23,.88,3.99,1.98,3.23-.7-.04-.16-.12-.37-.18-.53-.57-.19-1.03-.33-1.43-.17-.73-.98-1.31-1.38-1.87-1.3-.66,.18-1.78,1.86-1.67,2.53,.33,.04,.55-.25,.86-.29m6.26,2.47c1.06-.26,2.9-.74,3.01-.87-.07,.03-.1,.04-.14,.05,0-.06,.18-.19,.25-.2,0,0,.02,0,.04,0-.29-.35-.61-.65-1.27-.55-.69,.15-1.31,.66-2.15,1.49h.03c.08,.04,.14,.11,.23,.08m29.9,.14h0m-.14,.1s.09-.06,.13-.1c-.04,.03-.09,.07-.13,.1m-68.1,13.48c1.44,1.04,2.52,.46,2.93,.25-.94-1.81-1.01-2.84,.99-4.53,.03-.03,3.21-2.71,5.45-3.89,.04-.02,5.63-2.26,6.11-2.21,.03,0,.06,.03,.08,.04-.02,.03-.04,.05-.06,.07,.09-.04,.18-.08,.27-.12,.01-.53-.18-1.15-1.16-1.09-.09,.02-.21,.04-.3,.07-.85,.22-1.63,.66-2.49,.87-1.59,.37-3.24,.48-4.79,1.01-.43,.14-1.08,.37-2.52,1.49-7.51,5.91-7.06,6.24-4.52,8.05m68.39-13.7s-.09,.07-.14,.11c.03-.03,.07-.05,.1-.07,.01-.01,.03-.02,.04-.04m.84-.88h0Zm-110.12,251.27c.38-.35,.77-.94,.98-1.41-1.07-1.87-3.27-2.89-3.9-5.1-1.01-3.55,4.18-4.16,3.57-7.52-.18-1-4.63-10.87-6.74-13.91-.36-.51-1.32-1.89-1.2-2.69,.04-.32,.55-3.23,5.16-8.61,3.57-4.17,8.45-9.88,11.09-19.92,.28-1.07,.58-2.53,.82-3.61-8.42,1.57-15.69,2.93-16.23-1.79-1.85-8.63-10.84-13.39-12.08-22.35-.02-.13-7.84-28.75-7.9-28.9-.11-.27-.33-.59-.5-.82-1.94-2.62-4.63-.18-6.86-.89-2.82-.91-4.35-3.97-7.42-4.46-1.2-.19-4.2-.38-6.17,2.06-.3,.02-.69,.04-.99,.05-11.48-10.99-10.93-12.06-7.4-18.96-1.86-.97-2.5-1.26-4.26-1.96-4.75-1.67-10.39-.39-14.46-4.35-15.23,8.19-13.05,69.61,2.69,75.53,2.65,.99,5.97-.46,8.13,2.27,9.45,11.94,16.03,25.67,24.12,38.47q11.48,18.17,22.1,26.42c25.92,20.17,19.23,5.83,19.15,5.67-.56-1.09-1.49-1.97-1.72-3.23M32.09,137.68h0s0,0,0,.02v-.02h0m0,0h0s0,0,0,0m-.01,.03h0m0,.03h0c-.04,.08-.08,.16-.11,.24,.04-.08,.08-.16,.11-.24m14.19-78.88s0,0,.01,0c.1-.06,.22-.14,.34-.21h0c-.23,.13-.36,.21-.38,.2,0,.03,.02,.02,.02,.02m-14.18,78.84h0Zm.25-.53s-.13,.28-.15,.34l.13-.29s.02-.03,.02-.05m-.25,.53h0Zm0,0h0Zm10.65-41.25c-1.5,1.34-1.56,1.4-1.75,3.27,.2-.15,1.25-1.12,1.66-1.9,.25-.49,.16-.68,.1-.81-.06,.19-.09,.38-.14,.57,.02-.11,.1-.49,.27-1.25-.04,.04-.09,.08-.13,.12m1.51-31.8c1.19-.56,2.26-1.72,3.86-3.55,1.8-2.05,2.71-3.29,2.02-3.59-.98-.08-3.58,1.11-4.17,1.56-.96,.74-1.33,1.95-2.21,2.75-.6,.55-1.3,.99-1.86,1.59-.05,.06-.12,.13-.18,.19-.28,.32-.43,.63-.52,.84-.75,1.98,2.9,.28,3.06,.2m-12.06,72.82c-.03,.06-.06,.12-.09,.19,.03-.06,.06-.13,.09-.19Zm9.2-73.45c-.3,.59-.46,.92-.46,.92,.13-.25,.25-.5,.37-.75,.03-.06,.07-.11,.09-.17m4.85-5.2h0ZM112.38,6.51h0Zm0,0,0,0h0Zm0,0,0,0h0Zm0,0h0Zm0,0h0Zm0,0h0ZM47.63,64.2q-1.98,.97-2.32,1.29c-.73,.71-.45,1.84-1.06,2.6-.7,.85-1.87,1.04-2.58,1.87-.36,.42-.15,.64-.08,.72,.04,.04,4.27,2.77,7.5-.82,1.18-1.31,1.96-2.86,2.52-3.98,1.18-2.35,2.73-7.15,3.03-8.6,.03-.15,.02-.36,.1-.49,.28-.46,1.01-.75,1.43-1.07,1.3-.97,4.26-3.87,2.35-4.65-3.22-.19-6.94,5.77-8.4,10.14-.55,1.68-.71,2.13-2.5,3.01m-15.55,73.51h0M51.09,42.06s-.06,.05-.1,.07c.03-.02,.06-.04,.1-.07h0M112.39,6.51h0s.03,0,.04,0h0s-.02,0-.04,0h0ZM37.88,104.46c-.09,.12-.25,.19-.27,.36-.19,1.91-.07,2.91,.32,2.9,.56-.02,1.63-2.13,2.34-3.53-.19,.4-.39,.79-.59,1.18,.22-.45,.45-.9,.67-1.35,.02-.04,.04-.07,.05-.1,0,.02-.03,.05-.04,.07,.09-.18,.21-.42,.29-.61,.82-1.84,.34-1.98,.18-2.03-1.37-.11-3.32,2.53-2.86,2.8,.05,.03,.14-.05,.34-.32-.09,.12-.18,.25-.27,.37-.05,.07-.12,.17-.17,.25m12.25-59.58c.28,.26,3.34-.33,5.41-1.88,2.21-1.67,3.67-3.98,2.99-4.02-.03,0-.06,0-.09,0,.1-.02,.19-.04,.29-.05q-.37,.07-.65,.11c-.63,.02-.9-.03-1.42-.42-.01-.16,.02-.29,1.02-1.44,.51-.59,.76-.88,.73-.96-1.19-.06-4.81,3.4-4.85,3.44-.29,.3-.49,.68-.79,.98-.65,.67-1.5,1.13-2.03,1.93-.02,.02-.96,2-.62,2.31"/><path class="c" d="M236.7,25.13C209.23,5.84,174.59-3.52,138.01,1.21c-8.07-1.57-15.73-1.26-22.87,.73-6.18,1.58-7.94,2.08-14.24,4.21-11.46,4.35-14.51,5.75-25.11,11.56-10.15,6.3-11.97,7.44-20.68,14.35-10.41,9.23-11.26,9.98-17.48,16.93-9.35,11.46-9.71,11.91-14.37,19.21-7.5,12.94-7.8,13.45-11.13,21.16-5.53,14.41-5.64,14.69-7.67,22.78-3.19,15.35-3.25,15.65-3.95,24.05-.65,16.04-.66,16.34,.05,24.97l.07,.85,.08,.85,.08,.85,.09,.85,.09,.85,.1,.84,.1,.84,.11,.84,.12,.83,.11,.83q1.32,8.17,2.24,12.23,1.96,7.96,3.19,11.91,2.59,7.73,4.13,11.54,3.2,7.46,5.05,11.12,3.79,7.16,5.94,10.66,4.38,6.83,6.82,10.16,4.95,6.47,7.68,9.62c5.4,5.97,5.5,6.08,8.52,9.03,5.93,5.56,6.04,5.66,9.35,8.4,6.43,5.09,6.55,5.19,10.13,7.69,9.01,6.02,17.11,11.11,32.43,17.14,8.1,2.92,10.65,3.74,19.27,5.89,5.69,1.24,6.72,1.46,12.47,2.36,5.04,.66,5.45,.72,8.95,1.03,4.42,.33,4.5,.33,7.01,.43,3.8,.11,3.87,.11,5.87,.11,3.41-.03,3.48-.03,5.23-.09q3.24-.14,4.91-.25c1.46-.11,3.4-.28,4.86-.41,3.18-.35,3.45-.38,5.09-.6,9.1-1.32,14.37-2.56,21.46-4.51,4.47-1.35,7.69-2.33,13.53-4.6,5.47-2.26,6.6-2.72,11.67-5.18,5.93-3.06,6.55-3.39,10.63-5.81,5.96-3.72,6.31-3.94,9.85-6.44,5.78-4.28,6.01-4.45,9.17-7.08,5.34-4.63,5.78-5.01,9.08-8.23,5.74-5.88,5.85-5.99,8.72-9.32,5.18-6.26,5.27-6.38,7.79-9.85,4.6-6.61,4.69-6.73,6.87-10.33q4.08-7.03,5.94-10.77,3.47-7.32,5.01-11.16c2.8-7.45,2.86-7.59,4.06-11.51q2.22-7.78,3.1-11.81,1.58-7.99,2.13-12.07,.92-8.11,1.14-12.28,.27-8.25,.14-12.43l-.03-.83-.03-.84-.04-.84-.04-.84-.04-.84c-.03-.51-.11-1.19-.11-1.7-1.04-14.14-3.36-23.28-4.35-27.18-4.51-15.09-4.6-15.38-7.95-23.05-6.77-13.91-6.9-14.17-11.41-21.17-8.79-12.51-8.96-12.75-14.55-18.99-6.38-6.58-14.33-14.77-25.71-22.78m0,0c7.27,5.52,16.33,12.39,25.71,22.78,9.6,11.51,9.97,11.96,14.55,18.99,7.88,13.29,8.03,13.54,11.41,21.17,5.73,14.61,5.84,14.88,7.95,23.05,3.34,15.7,3.41,16,4.16,24.62l.07,.85,.06,.85c.04,.51,.12,1.19,.12,1.7,.03,.51,.1,1.19,.1,1.69l.04,.84,.04,.84,.03,.84,.03,.83q.07,8.29-.14,12.43-.59,8.18-1.14,12.28-1.25,8.04-2.13,12.07-1.9,7.89-3.1,11.81-2.53,7.68-4.06,11.51-3.16,7.46-5.01,11.16-3.78,7.2-5.94,10.77-4.39,6.91-6.87,10.33c-4.9,6.46-4.99,6.58-7.79,9.85-5.48,6.1-5.58,6.22-8.72,9.32-5.25,4.98-5.56,5.28-9.08,8.23-5.73,4.61-5.84,4.7-9.17,7.08-5.94,4.06-6.17,4.22-9.85,6.44-5.94,3.42-6.43,3.71-10.63,5.81-5.67,2.69-6.55,3.11-11.67,5.18-4.44,1.67-7.64,2.88-13.53,4.6-7.1,1.95-12.37,3.19-21.46,4.51q-3.41,.43-5.09,.6c-1.46,.13-3.4,.3-4.86,.41-3.18,.19-3.31,.19-4.91,.25-3.39,.09-3.45,.09-5.23,.09-3.68-.03-3.82-.04-5.87-.11-4.19-.2-4.44-.22-7.01-.43-4.76-.47-5.38-.53-8.95-1.03-5.23-.85-6.63-1.07-12.47-2.36-8.34-2.1-10.72-2.78-19.27-5.89-11.42-4.59-19.97-8.68-32.43-17.14-6.65-4.83-6.78-4.92-10.13-7.69-6.17-5.31-6.29-5.41-9.35-8.4-5.65-5.75-5.76-5.86-8.52-9.03-5.12-6.15-5.22-6.27-7.68-9.62q-4.66-6.65-6.82-10.16-4.09-6.99-5.94-10.66-3.51-7.32-5.05-11.12-2.9-7.6-4.13-11.54-2.28-7.86-3.19-11.91-1.65-8.09-2.24-12.23c-.07-.5,0-1.21-.23-1.66l-.11-.84-.1-.84-.1-.84c-.05-.51-.18-1.18-.18-1.69-.07-.76-.17-1.78-.24-2.55q-.73-16.47-.05-24.97c1.9-15.63,1.94-15.92,3.95-24.05,4.33-14.84,4.41-15.12,7.67-22.78,6.55-13.79,6.67-14.05,11.13-21.16,8.37-12.22,8.7-12.69,14.37-19.21,9.59-10.14,10.37-10.97,17.48-16.93,9.77-7.53,11.27-8.69,20.68-14.35,10.51-5.72,13.58-7.22,25.11-11.56,5.43-1.83,7.3-2.43,13.98-4.15,2.69-.75,5.46-1.27,8.29-1.54,.02,0,.04,0,.06-.01,.17-.02,.33-.03,.5-.04-.02,0-.04,0-.06,.01,4.61-.4,9.4-.15,14.35,.8,36.59-4.73,71.22,4.63,98.69,23.92"/><path class="c" d="M176.21,296.7s.03,0,.04,0c-1.56,.27-3.19,.51-4.89,.74-.25,.04-.49,.07-.73,.1-.06,.01-.12,.03-.18,.04,.24-.03,.48-.06,.71-.1,1.22-.16,2.42-.34,3.57-.52l1.49-.25Zm-5.96,.9c.06-.01,.12-.03,.18-.04-1.95,.25-3.91,.47-5.85,.65-.01,0-.02,.02-.03,.02,1.89-.18,3.8-.39,5.7-.63m-5.9,.65s.02-.02,.03-.02c-1.93,.18-3.84,.32-5.71,.43h.12c1.83-.1,3.7-.23,5.57-.41m-5.76,.42s-.08,0-.12,0c-1.89,.11-3.74,.18-5.55,.21,.09,0,.17,0,.26,0,1.76-.04,3.57-.11,5.41-.21m-5.59,.21c-.09,0-.18,0-.26,0-1.8,.04-3.55,.04-5.23,0,.02,0,.03,0,.04,0l1.73,.02c1.21,0,2.45,0,3.72-.02m-5.66,0h0Z"/><path class="c" d="M212.57,285.52l.94-.42c-1.37,.63-2.92,1.24-4.63,1.85-.2,.1-.4,.19-.6,.28,1.58-.56,3.01-1.13,4.29-1.71m-4.49,1.78c.2-.09,.4-.19,.6-.28-1.94,.68-4.08,1.34-6.41,1.98-.17,.09-.34,.17-.51,.25,2.3-.64,4.42-1.29,6.33-1.96m-6.56,2.02c.17-.08,.34-.17,.51-.25-2.33,.64-4.86,1.25-7.55,1.84-.13,.08-.27,.15-.41,.23,2.66-.58,5.15-1.19,7.45-1.82m-7.73,1.88c.14-.07,.27-.15,.41-.22-2.73,.59-5.63,1.15-8.69,1.67-.09,.07-.19,.14-.29,.2,3.02-.52,5.88-1.07,8.57-1.65m-8.88,1.7c.1-.07,.19-.13,.28-.2-2.66,.45-5.45,.88-8.34,1.27-.41,.06-.83,.11-1.25,.17-.05,.06-.11,.12-.15,.18,.41-.05,.82-.11,1.23-.16,2.86-.39,5.6-.8,8.24-1.25m-9.8,1.46c.05-.06,.1-.12,.15-.18-3.33,.43-6.67,.8-9.98,1.11,0,.05,0,.11-.01,.16,3.26-.3,6.55-.66,9.84-1.09m-10.18,1.12c0-.05,0-.11,0-.17-3.28,.3-6.54,.55-9.75,.73,.04,.05,.08,.11,.12,.16,3.16-.18,6.38-.42,9.62-.72m-9.95,.74c-.04-.05-.08-.11-.12-.16-3.22,.18-6.38,.3-9.46,.37l.25,.15c3.03-.06,6.15-.19,9.33-.36m-9.65,.37c-.08-.05-.17-.1-.25-.15-3.07,.06-6.05,.06-8.92,0,.13,.05,.25,.1,.37,.15,2.83,.05,5.77,.05,8.8,0m-9.09,0c-.12-.05-.25-.1-.38-.15-2.84-.06-5.56-.17-8.14-.34,.16,.05,.32,.1,.49,.16,2.54,.17,5.23,.28,8.03,.34m-8.29-.35c-.17-.05-.33-.11-.49-.16-2.58-.18-5.02-.41-7.28-.69,.2,.06,.39,.11,.59,.17,2.23,.28,4.63,.51,7.18,.68m-7.4-.71c-.2-.05-.4-.11-.59-.17-2.23-.29-4.28-.63-6.13-1.02,.22,.06,.45,.12,.67,.18,1.82,.39,3.85,.73,6.05,1.01m-6.24-1.05c-.23-.06-.45-.12-.68-.18-.71-.15-1.38-.31-2.03-.48l.93,.25c.57,.14,1.16,.28,1.77,.42"/><path class="c" d="M237.8,271.02c.22-.15,.43-.31,.65-.46-1.38,.98-3.1,1.96-5.13,2.93-.2,.15-.4,.29-.6,.44,2.02-.96,3.72-1.94,5.08-2.9m-5.29,3c.2-.14,.4-.29,.6-.44-2.04,.96-4.4,1.92-7.04,2.86-.18,.14-.36,.28-.54,.41,2.62-.93,4.96-1.88,6.98-2.83m-7.25,2.93c.18-.13,.36-.27,.54-.41-2.68,.95-5.66,1.87-8.9,2.76-.15,.13-.3,.26-.46,.39,3.21-.88,6.17-1.8,8.82-2.73m-9.15,2.82c.15-.13,.3-.26,.45-.39-3.24,.89-6.74,1.74-10.48,2.56-.12,.12-.24,.24-.36,.36,3.71-.81,7.18-1.66,10.39-2.53m-10.78,2.62l.35-.36c-3.78,.82-7.81,1.59-12.06,2.32-.08,.12-.17,.23-.25,.34,4.21-.72,8.2-1.49,11.95-2.3m-12.39,2.37c.08-.11,.17-.23,.25-.34-3.7,.63-7.57,1.22-11.58,1.76-.58,.08-1.15,.16-1.73,.23-.04,.11-.09,.22-.13,.33l1.72-.23c3.98-.54,7.81-1.12,11.48-1.74m-13.67,2.03c.04-.11,.08-.21,.12-.32-4.62,.59-9.25,1.11-13.84,1.53v.31c4.55-.42,9.14-.93,13.72-1.52m-14.19,1.57c0-.1,0-.21,0-.31-4.56,.42-9.09,.75-13.53,1.01,.04,.1,.08,.2,.12,.3,4.41-.25,8.89-.58,13.41-1m-13.87,1.03c-.04-.1-.08-.2-.13-.3-4.47,.25-8.86,.42-13.13,.51,.08,.1,.16,.2,.24,.29,4.23-.09,8.58-.26,13.01-.5m-13.45,.51c-.08-.1-.16-.19-.25-.3-4.26,.08-8.4,.09-12.38,0,.12,.1,.24,.2,.36,.3,3.94,.08,8.04,.07,12.26,0m-12.67,0c-.12-.1-.24-.19-.36-.29-3.94-.08-7.72-.24-11.3-.48,.16,.1,.31,.2,.46,.3,3.55,.23,7.29,.39,11.2,.47m-11.56-.5c-.16-.1-.31-.19-.46-.3-3.58-.24-6.96-.56-10.09-.96,.19,.11,.37,.21,.55,.31,3.1,.39,6.45,.71,10.01,.95m-10.32-.99c-.19-.1-.37-.2-.56-.31-3.1-.4-5.94-.87-8.51-1.42,.21,.11,.42,.21,.63,.32,2.54,.54,5.36,1.01,8.43,1.4m-8.7-1.46c-.21-.11-.42-.21-.63-.32-2.56-.55-4.83-1.18-6.77-1.88,.23,.11,.46,.22,.69,.34,1.92,.69,4.17,1.32,6.71,1.87m-6.91-1.94c-.23-.11-.46-.22-.69-.34-.78-.28-1.51-.59-2.18-.9l.83,.4c.63,.29,1.31,.57,2.04,.84"/><path class="c" d="M258.68,253.06l.64-.66c-.7,.73-1.57,1.47-2.58,2.2-.19,.19-.37,.39-.56,.59,.98-.71,1.82-1.42,2.51-2.13m-2.69,2.26c.19-.19,.38-.39,.57-.59-1.73,1.22-3.87,2.45-6.42,3.67-.17,.19-.35,.38-.52,.57,2.53-1.21,4.67-2.43,6.38-3.64m-6.64,3.77c.18-.19,.35-.38,.52-.57-2.56,1.21-5.5,2.41-8.81,3.57-.16,.18-.31,.36-.47,.54,3.29-1.16,6.22-2.35,8.76-3.55m-9.1,3.67c.15-.18,.31-.36,.46-.54-3.35,1.18-7.08,2.33-11.13,3.45l-.39,.52c4.03-1.11,7.73-2.26,11.06-3.42m-11.48,3.54c.13-.17,.26-.35,.39-.52-4.05,1.11-8.43,2.18-13.12,3.19-.1,.17-.2,.33-.31,.5,4.65-1.01,9.01-2.07,13.03-3.17m-13.52,3.28c.1-.16,.2-.33,.3-.5-4.73,1.03-9.77,1.99-15.08,2.9-.07,.16-.14,.32-.21,.48,5.28-.9,10.29-1.87,14.99-2.88m-15.53,2.98c.07-.16,.14-.32,.2-.48-4.63,.78-9.47,1.52-14.49,2.2-.72,.1-1.44,.19-2.16,.28-.04,.16-.07,.31-.1,.47,.72-.1,1.43-.19,2.15-.29,4.99-.67,9.79-1.41,14.39-2.18m-17.14,2.55c.04-.15,.07-.31,.1-.46-5.78,.74-11.57,1.38-17.31,1.92,0,.15,0,.3,.01,.45,5.71-.53,11.46-1.17,17.2-1.91m-17.79,1.96c0-.15,0-.3-.02-.45-5.71,.52-11.36,.95-16.92,1.27,.04,.15,.08,.29,.12,.44,5.52-.32,11.15-.73,16.82-1.26m-17.39,1.29c-.04-.15-.08-.3-.12-.44-5.59,.32-11.08,.53-16.42,.64,.08,.15,.16,.29,.23,.44,5.3-.11,10.76-.32,16.31-.63m-16.86,.64c-.08-.15-.16-.29-.24-.44-5.33,.1-10.5,.11-15.48,0,.11,.15,.22,.29,.33,.44,4.94,.1,10.09,.09,15.38,0m-15.89,0c-.11-.14-.23-.29-.34-.44-4.93-.1-9.65-.3-14.13-.59,.14,.15,.28,.29,.42,.44,4.45,.29,9.14,.49,14.04,.59m-14.5-.62c-.14-.14-.28-.29-.43-.44-4.48-.3-8.7-.7-12.62-1.2l.51,.45c3.89,.49,8.09,.89,12.54,1.19m-12.94-1.24c-.17-.15-.34-.3-.51-.45-3.87-.5-7.43-1.09-10.63-1.77,.19,.15,.38,.31,.58,.46,3.18,.68,6.73,1.27,10.57,1.76m-10.9-1.83c-.19-.15-.39-.31-.58-.46-3.2-.69-6.04-1.48-8.47-2.35,.21,.16,.42,.32,.63,.47,2.41,.87,5.23,1.65,8.42,2.34m-8.66-2.43c-.21-.16-.42-.32-.63-.48-2.38-.88-4.35-1.84-5.86-2.9,.22,.17,.45,.33,.67,.5,1.5,1.05,3.46,2.01,5.82,2.88m-5.98-2.99c-.22-.16-.45-.33-.67-.5-.07-.05-.13-.1-.19-.14l.73,.54,.13,.1"/><path class="c" d="M275.77,231.94c.15-.23,.31-.46,.46-.69-.95,1.41-2.42,2.83-4.4,4.26-.14,.23-.29,.45-.44,.67,1.96-1.42,3.43-2.84,4.37-4.24m-4.58,4.38l.44-.67c-2.02,1.43-4.54,2.87-7.52,4.3-.14,.22-.27,.43-.41,.65,2.97-1.42,5.48-2.85,7.49-4.28m-7.8,4.43c.14-.22,.27-.44,.41-.65-3,1.42-6.45,2.82-10.33,4.19-.12,.21-.24,.42-.36,.63,3.86-1.37,7.3-2.76,10.28-4.17m-10.68,4.31c.12-.21,.24-.42,.36-.64-3.94,1.38-8.29,2.73-13.05,4.04-.1,.21-.2,.42-.3,.62,4.73-1.3,9.08-2.65,12.99-4.03m-13.48,4.16c.1-.2,.2-.41,.3-.61-4.75,1.3-9.88,2.55-15.37,3.74-.08,.2-.15,.4-.23,.6,5.46-1.19,10.57-2.43,15.3-3.73m-15.87,3.85c.08-.2,.15-.4,.23-.6-5.55,1.2-11.46,2.34-17.68,3.4-.05,.19-.1,.39-.15,.58,6.2-1.06,12.08-2.19,17.6-3.38m-18.24,3.49c.05-.19,.1-.39,.15-.58-5.42,.92-11.09,1.78-16.98,2.58-.85,.11-1.69,.23-2.54,.34-.02,.19-.04,.38-.06,.57,.84-.11,1.68-.22,2.52-.34,5.86-.79,11.5-1.65,16.91-2.57m-20.13,2.99c.02-.19,.04-.38,.06-.57-6.78,.88-13.56,1.62-20.29,2.25,0,.19,.02,.37,.03,.56,6.71-.63,13.46-1.37,20.21-2.24m-20.89,2.31c0-.19-.02-.37-.03-.56-6.69,.61-13.32,1.11-19.84,1.48,.04,.19,.08,.37,.12,.56,6.49-.37,13.09-.87,19.75-1.48m-20.42,1.51c-.04-.19-.08-.37-.12-.55-6.55,.37-12.99,.61-19.24,.74,.07,.18,.14,.37,.2,.55,6.23-.13,12.63-.38,19.16-.74m-19.81,.75c-.07-.18-.14-.36-.21-.55-6.24,.12-12.31,.12-18.14,.01,.1,.19,.19,.37,.29,.55,5.8,.11,11.84,.11,18.06-.01m-18.66,0c-.1-.19-.19-.37-.29-.55-5.78-.12-11.32-.35-16.56-.7,.12,.19,.24,.37,.36,.55,5.22,.34,10.74,.58,16.49,.7m-17.02-.73c-.12-.18-.24-.37-.36-.55-5.25-.36-10.21-.82-14.8-1.41,.14,.19,.28,.37,.43,.56,4.57,.58,9.5,1.04,14.73,1.4m-15.21-1.46c-.15-.19-.29-.37-.43-.56-4.54-.58-8.71-1.27-12.47-2.08,.16,.19,.32,.38,.49,.57,3.74,.8,7.9,1.49,12.42,2.07m-12.8-2.15c-.16-.19-.33-.38-.49-.57-3.75-.81-7.09-1.73-9.93-2.76,.18,.19,.35,.39,.53,.58,2.83,1.03,6.15,1.94,9.88,2.75m-10.17-2.86c-.18-.19-.35-.39-.53-.58-2.79-1.03-5.1-2.16-6.87-3.4,.19,.2,.37,.4,.56,.59,1.76,1.23,4.06,2.36,6.84,3.38m-7.02-3.51c-.19-.2-.37-.4-.56-.6-.74-.53-1.38-1.08-1.9-1.64l.61,.65c.51,.54,1.13,1.06,1.85,1.58"/><path class="e" d="M288.48,208.81l.35-.81c-.19,.45-.43,.9-.73,1.35-.11,.25-.22,.51-.33,.76,.28-.43,.52-.87,.71-1.3m-.81,1.46c.11-.25,.22-.51,.33-.76-1.06,1.57-2.7,3.15-4.9,4.74-.1,.25-.21,.5-.31,.75,2.19-1.58,3.83-3.17,4.88-4.73m-5.11,4.89c.11-.25,.21-.5,.32-.75-2.25,1.6-5.06,3.2-8.38,4.79-.1,.25-.19,.49-.29,.73,3.32-1.58,6.11-3.18,8.36-4.78m-8.7,4.94c.1-.24,.19-.49,.29-.73-3.34,1.57-7.19,3.14-11.51,4.67-.08,.24-.17,.48-.26,.72,4.31-1.53,8.15-3.09,11.48-4.66m-11.93,4.81c.09-.24,.17-.48,.26-.72-4.39,1.54-9.25,3.05-14.55,4.5-.07,.24-.14,.47-.21,.71,5.28-1.46,10.13-2.96,14.5-4.49m-15.05,4.64c.07-.24,.14-.47,.21-.71-5.29,1.45-11.02,2.84-17.14,4.17-.05,.23-.11,.46-.16,.69,6.1-1.33,11.81-2.72,17.08-4.16m-17.71,4.3c.05-.23,.11-.46,.16-.69-6.19,1.34-12.77,2.61-19.71,3.79-.04,.23-.07,.45-.1,.68,6.92-1.18,13.48-2.45,19.65-3.78m-20.36,3.9c.03-.22,.06-.45,.1-.68-6.05,1.03-12.37,1.99-18.93,2.87-.95,.13-1.88,.25-2.83,.38-.01,.22-.02,.44-.03,.67,.94-.12,1.88-.25,2.82-.37,6.54-.88,12.84-1.84,18.87-2.87m-22.47,3.34c0-.22,.02-.44,.03-.67-7.56,.97-15.12,1.81-22.62,2.51,.01,.22,.03,.44,.04,.66,7.48-.7,15.02-1.53,22.55-2.5m-23.32,2.57c-.02-.22-.03-.44-.04-.66-7.45,.69-14.84,1.24-22.11,1.65,.04,.22,.07,.44,.11,.65,7.25-.42,14.62-.96,22.05-1.65m-22.8,1.69c-.04-.22-.07-.43-.11-.65-7.3,.41-14.48,.69-21.45,.83,.06,.22,.12,.44,.18,.65,6.95-.14,14.11-.42,21.39-.83m-22.11,.85c-.06-.22-.12-.43-.18-.66-6.96,.14-13.72,.14-20.22,.02,.08,.22,.16,.44,.24,.65,6.48,.12,13.22,.12,20.16-.01m-20.83,0c-.08-.22-.16-.43-.24-.65-6.44-.13-12.62-.39-18.46-.78,.1,.22,.2,.44,.3,.65,5.82,.38,11.98,.64,18.4,.78m-19-.82c-.1-.22-.2-.44-.3-.65-5.86-.4-11.38-.92-16.5-1.57,.11,.22,.23,.44,.35,.66,5.1,.65,10.6,1.17,16.45,1.56m-16.97-1.63c-.12-.22-.23-.44-.35-.66-5.06-.65-9.71-1.42-13.9-2.31,.13,.22,.26,.44,.39,.67,4.18,.89,8.82,1.66,13.86,2.31m-14.29-2.4c-.13-.22-.26-.45-.39-.67-4.18-.9-7.9-1.93-11.07-3.08,.14,.22,.28,.45,.42,.68,3.16,1.14,6.86,2.17,11.03,3.07m-11.35-3.19c-.14-.23-.28-.45-.42-.68-3.11-1.14-5.69-2.41-7.66-3.78l.45,.69c1.97,1.37,4.53,2.63,7.63,3.77m-7.84-3.92l-.45-.69c-1.41-1.01-2.46-2.06-3.16-3.12l.49,.74c.69,1.05,1.73,2.08,3.12,3.08"/><path class="e" d="M296.88,183.84l.2-.85c-.21,.9-.62,1.81-1.21,2.72-.06,.27-.13,.54-.19,.81,.58-.9,.98-1.79,1.2-2.68m-1.31,2.85c.06-.27,.13-.54,.19-.81-1.13,1.68-2.9,3.38-5.26,5.09-.06,.27-.12,.53-.18,.8,2.35-1.7,4.12-3.41,5.25-5.08m-5.5,5.26c.06-.27,.12-.53,.18-.8-2.42,1.72-5.43,3.44-9,5.14-.05,.27-.11,.53-.16,.79,3.57-1.7,6.57-3.42,8.99-5.13m-9.36,5.31c.05-.26,.11-.52,.17-.79-3.59,1.69-7.72,3.37-12.36,5.01-.05,.26-.09,.52-.14,.78,4.63-1.64,8.76-3.32,12.34-5.01m-12.82,5.18c.05-.26,.09-.52,.14-.78-4.71,1.65-9.93,3.27-15.62,4.84-.04,.26-.08,.51-.12,.77,5.68-1.56,10.89-3.18,15.59-4.83m-16.18,4.99c.04-.26,.07-.51,.11-.77-5.69,1.55-11.83,3.05-18.4,4.48-.03,.25-.05,.51-.08,.76,6.56-1.43,12.69-2.92,18.37-4.47m-19.05,4.62c.03-.25,.05-.51,.08-.76-6.64,1.43-13.71,2.8-21.16,4.07-.01,.25-.02,.5-.04,.75,7.44-1.27,14.5-2.63,21.13-4.06m-21.89,4.19c.01-.25,.03-.5,.04-.75-6.49,1.1-13.28,2.13-20.32,3.08-1.01,.14-2.02,.27-3.03,.4,0,.25,0,.5,0,.75,1.01-.13,2.02-.27,3.03-.4,7.03-.95,13.81-1.98,20.29-3.08m-24.15,3.59v-.75c-8.12,1.04-16.24,1.94-24.3,2.69,.02,.25,.03,.5,.05,.74,8.04-.75,16.15-1.65,24.25-2.69m-25.07,2.77c-.02-.25-.04-.5-.05-.74-8.01,.74-15.94,1.33-23.74,1.77,.03,.25,.06,.5,.1,.74,7.79-.45,15.71-1.04,23.7-1.77m-24.51,1.82c-.03-.25-.07-.5-.1-.74-7.84,.44-15.54,.74-23.04,.89l.14,.74c7.48-.16,15.16-.45,22.99-.89m-23.77,.9c-.05-.25-.1-.49-.14-.74-7.48,.15-14.74,.15-21.72,.02l.18,.74c6.96,.13,14.22,.13,21.68-.02m-22.39,0c-.06-.25-.12-.49-.18-.73-6.92-.14-13.54-.42-19.82-.84,.07,.25,.15,.49,.22,.74,6.26,.41,12.88,.69,19.78,.83m-20.43-.88c-.08-.25-.15-.49-.22-.74-6.29-.42-12.22-.98-17.71-1.68,.08,.25,.17,.5,.25,.74,5.48,.69,11.4,1.25,17.68,1.68m-18.25-1.75c-.08-.25-.17-.5-.25-.74-5.43-.7-10.43-1.53-14.93-2.49,.1,.25,.19,.5,.28,.75,4.49,.96,9.48,1.78,14.9,2.48m-15.36-2.58c-.1-.25-.19-.5-.28-.75-4.49-.97-8.48-2.08-11.88-3.31,.1,.25,.2,.5,.3,.75,3.4,1.23,7.37,2.33,11.86,3.3m-12.21-3.43c-.1-.25-.2-.5-.3-.75-3.34-1.23-6.1-2.59-8.22-4.06,.11,.25,.21,.51,.32,.76,2.11,1.48,4.87,2.83,8.21,4.06m-8.42-4.21c-.11-.25-.21-.51-.32-.76-2.03-1.46-3.37-2.98-4.03-4.55l.34,.81c.66,1.55,1.99,3.06,4,4.5"/><path class="e" d="M300.74,157.77l.05-.88c-.07,1.31-.55,2.64-1.42,3.98-.01,.28-.03,.56-.05,.85,.87-1.33,1.34-2.65,1.42-3.95m-1.54,4.12c.02-.28,.03-.56,.05-.85-1.18,1.75-3.02,3.52-5.47,5.29-.02,.28-.03,.56-.04,.84,2.45-1.77,4.29-3.54,5.47-5.29m-5.72,5.47c.02-.28,.03-.56,.04-.84-2.51,1.79-5.64,3.57-9.36,5.35,0,.28-.02,.56-.03,.83,3.71-1.77,6.84-3.56,9.35-5.34m-9.73,5.53c0-.28,.02-.56,.03-.84-3.73,1.76-8.02,3.5-12.85,5.21,0,.28-.02,.56-.03,.83,4.82-1.71,9.11-3.45,12.84-5.21m-13.34,5.39c0-.28,.02-.55,.03-.83-4.9,1.72-10.32,3.4-16.24,5.03,0,.27,0,.55-.01,.83,5.91-1.63,11.33-3.31,16.22-5.02m-16.83,5.19c0-.27,0-.55,0-.83-5.91,1.61-12.3,3.17-19.13,4.66,0,.27,0,.55,0,.82,6.82-1.48,13.21-3.04,19.11-4.65m-19.82,4.81c0-.27,0-.55,0-.82-6.91,1.49-14.25,2.91-22,4.23,0,.27,.02,.55,.02,.82,7.74-1.32,15.08-2.73,21.98-4.23m-22.77,4.36c0-.27-.02-.55-.03-.82-6.75,1.14-13.8,2.22-21.13,3.21-1.05,.14-2.1,.28-3.15,.42,.02,.27,.03,.54,.04,.82,1.05-.14,2.1-.28,3.15-.42,7.32-.99,14.36-2.06,21.11-3.2m-25.13,3.73c-.02-.27-.03-.55-.05-.82-8.43,1.09-16.87,2.02-25.25,2.8,.02,.27,.04,.54,.06,.81,8.37-.78,16.8-1.71,25.23-2.8m-26.09,2.88l-.07-.81c-8.32,.76-16.57,1.38-24.68,1.84,.03,.27,.05,.54,.08,.81,8.1-.47,16.35-1.08,24.66-1.84m-25.5,1.89c-.03-.27-.05-.54-.08-.81-8.15,.46-16.16,.77-23.94,.93l.11,.81c7.78-.16,15.78-.47,23.92-.93m-24.73,.95l-.11-.81c-7.77,.15-15.32,.16-22.57,.02,.04,.27,.08,.54,.12,.81,7.25,.14,14.79,.13,22.55-.02m-23.3,0l-.12-.81c-7.19-.15-14.08-.44-20.6-.87l.14,.81c6.51,.43,13.4,.72,20.58,.87m-21.26-.92c-.05-.27-.1-.54-.14-.81-6.54-.44-12.7-1.03-18.41-1.75,.05,.27,.1,.55,.15,.82,5.71,.72,11.86,1.3,18.4,1.74m-18.99-1.82c-.05-.27-.1-.54-.16-.82-5.64-.72-10.84-1.58-15.52-2.58,.06,.27,.11,.55,.17,.82,4.67,.99,9.86,1.86,15.5,2.58m-15.98-2.68c-.06-.27-.11-.55-.17-.82-4.67-1.01-8.81-2.16-12.35-3.44,.06,.27,.12,.55,.18,.82,3.53,1.28,7.67,2.42,12.34,3.43m-12.7-3.57c-.06-.27-.12-.55-.18-.82-3.47-1.28-6.34-2.69-8.55-4.23,.06,.27,.12,.55,.19,.82,2.2,1.54,5.07,2.95,8.54,4.22m-8.77-4.38c-.06-.27-.12-.55-.19-.82-2.16-1.55-3.56-3.17-4.23-4.84,.06,.28,.13,.55,.19,.83,.67,1.66,2.07,3.28,4.23,4.83m-4.29-5.01c-.06-.27-.13-.55-.19-.83-.1-.28-.19-.55-.25-.83l.2,.87c.06,.27,.14,.53,.24,.79"/><path class="e" d="M299.98,130.9l-.11-.92c.2,1.67-.27,3.39-1.4,5.12,.04,.3,.07,.59,.11,.88,1.12-1.72,1.6-3.42,1.4-5.08m-1.52,5.26l-.11-.88c-1.19,1.76-3.04,3.55-5.52,5.34,.04,.29,.07,.59,.11,.88,2.48-1.79,4.33-3.58,5.52-5.34m-5.78,5.53c-.04-.29-.07-.59-.11-.88-2.53,1.8-5.69,3.61-9.44,5.39,.04,.3,.07,.59,.1,.89,3.74-1.79,6.91-3.59,9.44-5.4m-9.83,5.58c-.03-.3-.07-.59-.1-.88-3.76,1.77-8.09,3.53-12.96,5.25,.03,.3,.07,.59,.1,.89,4.87-1.73,9.2-3.48,12.96-5.26m-13.47,5.44c-.03-.3-.07-.59-.1-.89-4.94,1.73-10.41,3.43-16.37,5.08,.03,.29,.06,.59,.1,.89,5.97-1.65,11.44-3.34,16.38-5.08m-17,5.24c-.03-.29-.06-.59-.1-.89-5.96,1.63-12.4,3.2-19.29,4.7,.03,.3,.06,.59,.09,.89,6.89-1.5,13.34-3.07,19.29-4.7m-20.01,4.86c-.03-.3-.06-.59-.09-.89-6.97,1.5-14.38,2.93-22.19,4.27,.03,.29,.06,.59,.09,.89,7.81-1.34,15.22-2.76,22.19-4.27m-23,4.41l-.09-.89c-6.81,1.15-13.93,2.24-21.31,3.23-1.06,.14-2.12,.28-3.18,.42,.03,.3,.05,.59,.08,.89,1.06-.14,2.12-.28,3.18-.42,7.39-1,14.5-2.08,21.32-3.23m-25.38,3.77c-.03-.29-.05-.59-.08-.89-8.51,1.1-17.02,2.04-25.47,2.83,.03,.3,.05,.59,.08,.89,8.45-.79,16.97-1.73,25.47-2.83m-26.34,2.91c-.03-.29-.05-.59-.07-.89-8.39,.77-16.72,1.39-24.9,1.86,.03,.3,.05,.59,.07,.89,8.18-.47,16.51-1.09,24.9-1.86m-25.75,1.91c-.02-.3-.05-.59-.07-.89-8.22,.46-16.3,.77-24.15,.94l.07,.89c7.86-.16,15.93-.47,24.16-.94m-24.97,.95l-.07-.89c-7.84,.15-15.45,.16-22.77,.02,.02,.3,.04,.59,.06,.89,7.32,.14,14.93,.14,22.77-.02m-23.52,0c-.02-.3-.04-.6-.06-.89-7.25-.15-14.2-.44-20.78-.88l.06,.89c6.58,.43,13.54,.73,20.79,.88m-21.46-.92c-.02-.3-.04-.59-.06-.89-6.59-.45-12.81-1.04-18.57-1.76,.02,.3,.04,.59,.05,.89,5.76,.73,11.98,1.32,18.58,1.76m-19.17-1.84c-.02-.29-.04-.59-.05-.89-5.69-.73-10.93-1.6-15.65-2.6,.02,.3,.03,.59,.05,.89,4.72,1,9.96,1.88,15.65,2.6m-16.14-2.71l-.05-.89c-4.71-1.02-8.89-2.18-12.46-3.47,.01,.3,.03,.59,.05,.89,3.57,1.29,7.75,2.44,12.46,3.47m-12.83-3.6c-.02-.3-.03-.59-.04-.89-3.5-1.29-6.4-2.71-8.62-4.26,.01,.3,.03,.59,.04,.89,2.22,1.55,5.12,2.97,8.62,4.26m-8.85-4.42c-.02-.3-.03-.59-.04-.89-2.19-1.57-3.59-3.2-4.27-4.88,.01,.3,.03,.59,.04,.89,.68,1.68,2.08,3.32,4.27,4.88m-4.33-5.05c-.02-.3-.03-.59-.04-.89-.24-.64-.37-1.28-.4-1.93l.05,.92c.03,.64,.16,1.27,.4,1.89"/><path class="e" d="M294.38,104.24l-.27-.85c.09,.27,.15,.55,.2,.83,.09,.27,.17,.54,.25,.81-.04-.26-.11-.53-.19-.79m.22,.96c-.08-.27-.17-.54-.26-.81,.24,1.67-.23,3.38-1.35,5.11,.09,.27,.17,.55,.25,.82,1.13-1.73,1.59-3.45,1.35-5.12m-1.47,5.3c-.08-.27-.17-.55-.25-.82-1.17,1.73-2.98,3.47-5.4,5.22,.08,.28,.17,.55,.25,.83,2.42-1.75,4.24-3.5,5.4-5.23m-5.65,5.41c-.08-.27-.16-.55-.24-.83-2.48,1.76-5.57,3.52-9.23,5.27,.08,.28,.15,.56,.23,.83,3.66-1.75,6.76-3.52,9.24-5.28m-9.63,5.47c-.08-.28-.15-.56-.23-.84-3.68,1.73-7.92,3.45-12.68,5.14,.07,.28,.15,.56,.22,.84,4.77-1.69,9.01-3.41,12.69-5.15m-13.18,5.32c-.07-.28-.14-.56-.21-.84-4.83,1.7-10.18,3.35-16.01,4.96,.07,.28,.13,.57,.19,.85,5.84-1.61,11.2-3.27,16.03-4.97m-16.63,5.13c-.07-.28-.13-.57-.2-.85-5.83,1.59-12.13,3.13-18.86,4.59,.06,.28,.11,.57,.17,.86,6.74-1.47,13.05-3.01,18.89-4.6m-19.59,4.75c-.06-.28-.12-.57-.17-.85-6.81,1.47-14.06,2.87-21.7,4.17,.05,.29,.1,.57,.14,.86,7.65-1.31,14.91-2.71,21.73-4.18m-22.51,4.31c-.05-.29-.1-.58-.14-.86-6.66,1.13-13.61,2.19-20.83,3.16-1.04,.14-2.07,.28-3.11,.41,.04,.29,.08,.58,.11,.87,1.04-.14,2.08-.27,3.11-.42,7.23-.97,14.2-2.03,20.86-3.16m-24.84,3.69c-.04-.29-.07-.58-.11-.87-8.32,1.07-16.65,1.99-24.91,2.76,.03,.29,.06,.58,.08,.87,8.27-.77,16.61-1.69,24.94-2.77m-25.79,2.84c-.03-.29-.05-.58-.08-.87-8.21,.75-16.35,1.36-24.35,1.82,.02,.29,.04,.58,.05,.87,8.01-.46,16.16-1.07,24.37-1.82m-25.2,1.87c-.02-.29-.03-.58-.05-.87-8.04,.45-15.94,.76-23.62,.91l.02,.87c7.69-.16,15.6-.46,23.65-.92m-24.44,.93c0-.29-.01-.58-.02-.87-7.66,.15-15.11,.15-22.26,.02,0,.29,0,.58,0,.87,7.16,.14,14.61,.13,22.29-.02m-23.03,0c0-.29,0-.58,.01-.87-7.09-.15-13.89-.43-20.32-.86-.02,.29-.03,.58-.04,.87,6.44,.42,13.25,.71,20.35,.86m-21.01-.9c.01-.29,.03-.58,.04-.87-6.45-.44-12.53-1.01-18.16-1.73-.02,.29-.04,.58-.06,.87,5.64,.71,11.72,1.29,18.18,1.73m-18.76-1.8c.02-.29,.04-.58,.06-.87-5.57-.72-10.69-1.57-15.3-2.55-.03,.28-.05,.58-.08,.86,4.62,.98,9.75,1.84,15.32,2.55m-15.8-2.65c.03-.29,.05-.58,.08-.87-4.61-1-8.69-2.13-12.18-3.39l-.1,.86c3.49,1.26,7.58,2.4,12.2,3.39m-12.55-3.52c.03-.29,.06-.57,.1-.86-3.42-1.26-6.26-2.65-8.43-4.17-.04,.28-.07,.57-.11,.86,2.17,1.52,5.01,2.91,8.44,4.17m-8.66-4.33c.04-.28,.07-.57,.11-.85-2.13-1.53-3.51-3.13-4.17-4.77-.04,.28-.08,.57-.11,.85,.66,1.65,2.04,3.25,4.18,4.78m-4.24-4.95c.04-.28,.07-.57,.11-.85-.37-.99-.48-2-.34-3.02l-.12,.88c-.13,1.01-.02,2,.34,2.98"/><path class="e" d="M284.4,79.74l-.41-.78c.33,.62,.54,1.25,.65,1.88,.13,.25,.26,.5,.39,.74-.11-.62-.32-1.24-.63-1.84m.65,2.01c-.13-.25-.26-.5-.39-.74,.23,1.58-.21,3.2-1.28,4.85,.13,.25,.26,.5,.38,.76,1.07-1.65,1.51-3.27,1.28-4.86m-1.4,5.03l-.38-.76c-1.1,1.64-2.82,3.29-5.11,4.95,.12,.26,.25,.51,.37,.77,2.3-1.66,4.02-3.32,5.13-4.96m-5.37,5.13c-.12-.26-.24-.51-.37-.77-2.35,1.67-5.28,3.34-8.75,5,.11,.26,.23,.52,.35,.78,3.48-1.66,6.41-3.34,8.77-5.01m-9.13,5.18c-.11-.26-.23-.52-.35-.78-3.49,1.65-7.5,3.28-12.01,4.87,.11,.26,.21,.53,.32,.79,4.52-1.6,8.55-3.24,12.04-4.89m-12.51,5.05c-.11-.27-.21-.53-.32-.79-4.57,1.61-9.65,3.18-15.18,4.7,.1,.27,.19,.53,.28,.8,5.54-1.53,10.63-3.1,15.21-4.71m-15.78,4.87c-.1-.27-.19-.54-.28-.81-5.52,1.51-11.5,2.97-17.88,4.35,.08,.27,.17,.54,.24,.81,6.4-1.39,12.39-2.85,17.92-4.36m-18.59,4.51c-.08-.27-.16-.54-.24-.81-6.45,1.39-13.32,2.72-20.57,3.95,.07,.27,.13,.55,.19,.82,7.26-1.24,14.14-2.57,20.61-3.96m-21.36,4.09l-.19-.82c-6.31,1.07-12.91,2.07-19.75,3-.98,.13-1.96,.27-2.95,.39,.05,.28,.09,.56,.14,.83,.98-.13,1.97-.26,2.95-.39,6.86-.93,13.47-1.93,19.8-3m-23.57,3.5c-.05-.28-.09-.56-.14-.83-7.88,1.02-15.78,1.89-23.61,2.62,.03,.28,.05,.56,.08,.83,7.85-.73,15.76-1.6,23.66-2.62m-24.47,2.7c-.03-.28-.05-.56-.08-.84-7.78,.72-15.49,1.29-23.07,1.73,0,.28,.02,.56,.03,.84,7.6-.44,15.33-1.01,23.13-1.73m-23.91,1.77c0-.28-.02-.56-.03-.84-7.62,.43-15.11,.72-22.39,.87,0,.28-.02,.56-.03,.84,7.3-.15,14.8-.44,22.44-.87m-23.2,.88l.03-.84c-7.27,.14-14.32,.14-21.1,.01-.03,.28-.05,.56-.08,.85,6.8,.13,13.87,.12,21.15-.02m-21.85,0l.08-.84c-6.72-.14-13.16-.41-19.26-.81-.04,.28-.08,.56-.12,.84,6.11,.4,12.57,.68,19.3,.81m-19.94-.86l.12-.84c-6.11-.41-11.87-.96-17.22-1.63-.05,.28-.11,.56-.16,.84,5.35,.67,11.13,1.22,17.25,1.64m-17.81-1.71c.05-.28,.11-.56,.17-.84-5.28-.68-10.14-1.49-14.51-2.42-.07,.27-.13,.55-.2,.83,4.38,.93,9.25,1.74,14.54,2.42m-14.99-2.52c.06-.28,.13-.56,.19-.83-4.36-.95-8.24-2.02-11.54-3.21-.08,.28-.15,.55-.22,.82,3.31,1.2,7.2,2.27,11.57,3.22m-11.91-3.34c.07-.27,.15-.55,.22-.82-3.25-1.2-5.93-2.51-7.99-3.95-.08,.27-.16,.55-.25,.81,2.06,1.44,4.76,2.76,8.01,3.96m-8.22-4.11c.08-.27,.16-.54,.25-.81-2.03-1.45-3.33-2.97-3.96-4.53-.08,.27-.17,.54-.25,.81,.63,1.56,1.94,3.08,3.96,4.54m-4.03-4.7c.08-.27,.17-.54,.25-.81-.49-1.31-.5-2.65-.05-4.01l-.27,.84c-.43,1.35-.42,2.68,.07,3.98"/><path class="e" d="M270.34,57.48l-.53-.69c.72,.93,1.16,1.88,1.32,2.84,.17,.22,.34,.44,.5,.66-.17-.95-.59-1.89-1.3-2.81m1.32,2.96c-.17-.22-.34-.44-.5-.66,.21,1.45-.2,2.94-1.18,4.44,.17,.22,.34,.45,.5,.68,.98-1.51,1.39-3,1.18-4.46m-1.28,4.61c-.17-.23-.34-.45-.5-.68-1.01,1.5-2.58,3.02-4.69,4.54,.16,.23,.32,.46,.48,.69,2.11-1.52,3.69-3.05,4.7-4.55m-4.92,4.71c-.16-.23-.32-.47-.49-.7-2.15,1.53-4.84,3.06-8.01,4.58,.15,.24,.3,.47,.45,.71,3.19-1.53,5.88-3.06,8.05-4.6m-8.38,4.75c-.15-.24-.3-.48-.45-.71-3.19,1.51-6.87,3-11.01,4.47,.14,.24,.27,.49,.42,.73,4.15-1.47,7.84-2.97,11.05-4.48m-11.48,4.64c-.14-.25-.27-.49-.41-.73-4.19,1.47-8.84,2.92-13.91,4.31,.12,.25,.25,.5,.37,.74,5.08-1.4,9.75-2.85,13.96-4.32m-14.48,4.47c-.12-.25-.24-.5-.36-.74-5.06,1.38-10.54,2.72-16.38,3.99,.1,.25,.2,.5,.3,.76,5.87-1.28,11.36-2.62,16.44-4m-17.05,4.14c-.1-.25-.2-.5-.3-.76-5.91,1.27-12.21,2.49-18.84,3.62,.08,.26,.16,.51,.24,.77,6.66-1.14,12.97-2.35,18.91-3.64m-19.6,3.75c-.08-.26-.16-.51-.24-.77-5.79,.98-11.82,1.9-18.1,2.75-.9,.12-1.8,.24-2.7,.36,.05,.26,.11,.52,.16,.78,.9-.12,1.81-.24,2.71-.36,6.29-.85,12.36-1.77,18.16-2.75m-21.62,3.21c-.05-.26-.11-.52-.16-.78-7.22,.93-14.46,1.73-21.63,2.4,.03,.26,.06,.53,.08,.79,7.2-.67,14.46-1.47,21.71-2.41m-22.45,2.48c-.03-.27-.05-.53-.08-.79-7.13,.66-14.2,1.18-21.14,1.58v.8c6.98-.4,14.07-.93,21.22-1.58m-21.94,1.63c0-.27,0-.53,0-.8-6.98,.39-13.84,.65-20.51,.8-.02,.27-.04,.53-.06,.8,6.69-.14,13.58-.4,20.58-.8m-21.28,.81c.02-.27,.05-.53,.07-.8-6.66,.13-13.13,.13-19.34,.01-.04,.27-.09,.53-.13,.8,6.23,.12,12.72,.12,19.4-.02m-20.05,0c.04-.27,.09-.53,.14-.8-6.16-.13-12.06-.37-17.65-.74-.07,.27-.13,.53-.2,.8,5.61,.37,11.53,.62,17.71,.75m-18.29-.79c.07-.27,.13-.53,.2-.8-5.6-.38-10.88-.88-15.77-1.5-.09,.27-.17,.53-.26,.79,4.91,.62,10.21,1.12,15.83,1.5m-16.33-1.57c.08-.26,.17-.53,.26-.79-4.83-.62-9.28-1.36-13.29-2.21-.1,.26-.2,.52-.31,.78,4.02,.86,8.49,1.6,13.34,2.22m-13.76-2.31c.1-.26,.2-.52,.31-.78-4-.87-7.55-1.85-10.58-2.95-.12,.26-.23,.51-.34,.77,3.04,1.1,6.6,2.09,10.62,2.95m-10.93-3.07c.11-.26,.23-.51,.35-.77-2.97-1.1-5.43-2.3-7.32-3.62-.12,.26-.25,.51-.37,.76,1.89,1.32,4.36,2.53,7.34,3.63m-7.54-3.77c.12-.25,.25-.5,.37-.76-1.86-1.33-3.05-2.72-3.63-4.15-.13,.25-.26,.5-.38,.74,.58,1.43,1.78,2.82,3.64,4.16m-3.7-4.31c.13-.25,.26-.5,.38-.74-.53-1.42-.44-2.88,.22-4.37l-.38,.73c-.66,1.49-.75,2.96-.22,4.38m.29-4.54l.38-.73c.06-.13,.12-.25,.19-.38l-.41,.77c-.06,.11-.11,.22-.17,.34"/><path class="e" d="M252.65,38.02c-.18-.17-.36-.34-.54-.5,1.31,1.19,2.06,2.43,2.28,3.7,.2,.19,.41,.38,.61,.57-.22-1.27-.97-2.51-2.29-3.71l-.06-.05Zm2.37,3.9c-.2-.19-.41-.38-.61-.57,.18,1.28-.17,2.59-1.04,3.92,.2,.19,.4,.39,.6,.59,.87-1.34,1.22-2.65,1.04-3.94m-1.13,4.07c-.2-.19-.4-.39-.6-.59-.89,1.32-2.28,2.66-4.13,4,.19,.2,.39,.41,.58,.61,1.86-1.34,3.26-2.69,4.15-4.02m-4.34,4.16c-.19-.2-.39-.41-.58-.61-1.9,1.35-4.26,2.7-7.07,4.04,.18,.21,.37,.42,.55,.63,2.82-1.34,5.2-2.7,7.1-4.06m-7.4,4.2c-.18-.21-.36-.42-.54-.63-2.82,1.33-6.06,2.65-9.7,3.94,.17,.22,.33,.43,.5,.65,3.66-1.3,6.93-2.62,9.75-3.95m-10.13,4.09c-.17-.22-.33-.43-.5-.65-3.69,1.3-7.79,2.57-12.26,3.8,.15,.22,.29,.44,.43,.67,4.49-1.24,8.61-2.51,12.32-3.82m-12.78,3.95l-.43-.67c-4.46,1.22-9.29,2.4-14.44,3.52,.12,.23,.24,.46,.36,.69,5.18-1.13,10.03-2.31,14.52-3.53m-15.05,3.65c-.12-.23-.24-.46-.36-.69-5.21,1.12-10.76,2.19-16.61,3.19,.09,.23,.19,.47,.28,.7,5.88-1,11.45-2.08,16.69-3.21m-17.3,3.31c-.09-.23-.18-.47-.27-.7-5.1,.86-10.42,1.67-15.96,2.42-.79,.11-1.59,.21-2.38,.32,.06,.24,.12,.48,.18,.72,.8-.1,1.59-.21,2.39-.32,5.56-.75,10.91-1.56,16.03-2.43m-19.09,2.84c-.06-.24-.12-.48-.18-.72-6.37,.82-12.75,1.53-19.07,2.12,.03,.24,.05,.48,.08,.73,6.36-.59,12.76-1.3,19.16-2.12m-19.82,2.19c-.03-.24-.05-.49-.08-.73-6.28,.58-12.51,1.04-18.64,1.39,0,.25,0,.49-.02,.73,6.16-.35,12.42-.82,18.73-1.4m-19.37,1.44c0-.25,0-.49,.02-.73-6.16,.34-12.2,.58-18.08,.7-.04,.25-.07,.49-.11,.74,5.91-.12,11.99-.35,18.17-.7m-18.79,.72c.04-.25,.07-.5,.11-.74-5.87,.11-11.57,.11-17.05,0-.06,.25-.13,.5-.19,.74,5.5,.11,11.23,.1,17.13-.01m-17.69,0l.19-.74c-5.42-.11-10.63-.33-15.56-.65-.09,.24-.18,.49-.27,.73,4.95,.33,10.18,.55,15.64,.66m-16.15-.69c.09-.25,.18-.49,.27-.73-4.94-.34-9.59-.78-13.91-1.32-.11,.24-.23,.49-.34,.73,4.33,.54,9.01,.99,13.97,1.32m-14.42-1.38c.12-.24,.23-.49,.35-.73-4.26-.55-8.18-1.2-11.71-1.95-.13,.24-.27,.48-.4,.72,3.55,.75,7.49,1.41,11.77,1.96m-12.14-2.04c.13-.24,.27-.48,.41-.72-3.53-.76-6.66-1.63-9.33-2.59-.15,.23-.3,.47-.45,.71,2.68,.97,5.83,1.84,9.37,2.61m-9.65-2.71c.15-.24,.3-.47,.45-.7-2.62-.97-4.79-2.03-6.45-3.19-.16,.23-.32,.46-.49,.69,1.67,1.17,3.85,2.24,6.49,3.21m-6.66-3.33c.16-.23,.32-.46,.49-.69-1.64-1.17-2.69-2.4-3.2-3.65-.17,.22-.34,.45-.5,.67,.51,1.27,1.57,2.49,3.21,3.67m-3.26-3.8c.17-.23,.34-.45,.5-.67-.47-1.25-.39-2.54,.19-3.85-.17,.21-.34,.43-.5,.65-.58,1.32-.65,2.61-.19,3.87m.26-4.01c.17-.22,.33-.43,.5-.65,.26-.55,.61-1.11,1.05-1.67l-.53,.69c-.42,.54-.76,1.09-1.01,1.62"/><path class="e" d="M232.3,22.16c-.23-.15-.45-.29-.67-.43,.37,.26,.7,.52,1,.78,.23,.15,.45,.29,.68,.44-.3-.27-.64-.53-1.01-.79m1.12,.89c-.23-.15-.45-.29-.68-.44,1.1,1,1.73,2.03,1.91,3.09,.23,.15,.46,.31,.7,.46-.19-1.07-.81-2.11-1.92-3.11m1.94,3.23c-.23-.15-.46-.31-.7-.46,.15,1.07-.15,2.17-.87,3.28,.23,.16,.46,.32,.69,.48,.73-1.12,1.03-2.22,.87-3.3m-.95,3.41c-.23-.16-.46-.33-.69-.49-.74,1.11-1.9,2.22-3.46,3.34,.22,.17,.44,.34,.67,.51,1.56-1.13,2.73-2.26,3.48-3.37m-3.64,3.49c-.22-.17-.44-.34-.66-.51-1.59,1.13-3.57,2.26-5.91,3.38l.62,.54c2.36-1.13,4.36-2.27,5.95-3.41m-6.2,3.52c-.21-.18-.42-.36-.62-.53-2.36,1.11-5.07,2.21-8.12,3.3,.19,.18,.38,.37,.57,.56,3.07-1.09,5.8-2.2,8.18-3.32m-8.5,3.43c-.19-.19-.37-.37-.56-.56-3.1,1.09-6.52,2.15-10.26,3.18,.17,.19,.33,.38,.49,.58,3.77-1.04,7.22-2.11,10.33-3.2m-10.72,3.31c-.17-.19-.33-.39-.49-.58-3.73,1.02-7.77,2.01-12.08,2.95,.13,.2,.27,.4,.41,.6,4.34-.94,8.41-1.94,12.17-2.96m-12.62,3.06c-.13-.2-.27-.4-.4-.6-4.37,.94-9.01,1.84-13.91,2.67,.1,.2,.2,.41,.3,.62,4.93-.84,9.61-1.74,14-2.69m-14.51,2.78c-.1-.21-.2-.42-.3-.62-4.27,.72-8.72,1.4-13.35,2.03-.66,.09-1.33,.18-1.99,.27,.06,.21,.13,.42,.19,.64,.67-.09,1.34-.18,2.01-.27,4.66-.63,9.15-1.31,13.45-2.04m-16.01,2.38c-.06-.21-.13-.42-.19-.64-5.33,.69-10.67,1.28-15.96,1.77,.03,.21,.05,.43,.08,.65,5.33-.5,10.7-1.09,16.07-1.78m-16.62,1.83c-.03-.22-.05-.43-.07-.65-5.26,.49-10.47,.87-15.6,1.17,0,.22-.02,.44-.03,.66,5.16-.3,10.41-.69,15.71-1.17m-16.24,1.2c.01-.22,.02-.44,.04-.66-5.15,.29-10.21,.49-15.14,.59-.04,.22-.09,.44-.14,.66,4.95-.11,10.05-.3,15.24-.59m-15.75,.6l.14-.66c-4.91,.09-9.69,.1-14.27,0-.08,.22-.16,.44-.24,.66,4.62,.09,9.42,.09,14.37,0m-14.84,0c.08-.22,.16-.44,.25-.66-4.54-.09-8.9-.28-13.02-.55-.11,.22-.22,.44-.34,.66,4.15,.27,8.54,.46,13.11,.55m-13.54-.58c.11-.22,.23-.44,.34-.66-4.13-.28-8.02-.65-11.63-1.11-.14,.22-.28,.43-.42,.65,3.64,.46,7.55,.83,11.72,1.11m-12.09-1.16c.14-.22,.28-.44,.42-.65-3.57-.46-6.85-1-9.81-1.64-.17,.21-.33,.43-.49,.64,2.98,.63,6.28,1.18,9.87,1.65m-10.18-1.71c.16-.21,.33-.42,.49-.64-2.95-.64-5.57-1.36-7.81-2.17-.18,.21-.36,.42-.55,.62,2.25,.81,4.89,1.54,7.86,2.19m-8.09-2.27c.18-.21,.37-.42,.55-.62-2.19-.81-4.01-1.7-5.4-2.67-.19,.2-.39,.4-.59,.61,1.4,.97,3.23,1.87,5.44,2.69m-5.58-2.79c.19-.2,.39-.4,.59-.6-1.37-.98-2.25-2.01-2.68-3.06-.2,.19-.4,.39-.61,.58,.43,1.06,1.32,2.09,2.7,3.08m-2.74-3.19c.2-.19,.4-.39,.61-.58-.39-1.05-.33-2.13,.16-3.22-.2,.19-.41,.37-.6,.56-.49,1.1-.56,2.19-.16,3.24m.21-3.36c.2-.19,.4-.37,.61-.56,.46-.97,1.25-1.96,2.35-2.95l-.65,.6c-1.08,.98-1.85,1.95-2.31,2.91"/><path class="e" d="M211,10.9c-.25-.1-.5-.21-.75-.31,.29,.2,.55,.4,.78,.61,.25,.1,.5,.21,.75,.32-.24-.21-.5-.41-.79-.62m.88,.7c-.25-.11-.5-.21-.76-.32,.86,.78,1.34,1.58,1.49,2.41,.26,.11,.51,.23,.77,.35-.14-.83-.63-1.65-1.5-2.43m1.51,2.52c-.26-.11-.51-.23-.77-.34,.12,.83-.11,1.69-.67,2.55,.26,.12,.51,.25,.76,.37,.57-.88,.8-1.73,.68-2.57m-.74,2.66c-.25-.12-.5-.25-.76-.37-.58,.86-1.48,1.73-2.69,2.6,.25,.13,.49,.27,.73,.4,1.22-.88,2.13-1.76,2.72-2.63m-2.84,2.72c-.24-.13-.49-.27-.73-.4-1.24,.88-2.78,1.76-4.6,2.63,.23,.14,.46,.28,.69,.42,1.84-.88,3.4-1.77,4.64-2.65m-4.84,2.75c-.23-.14-.46-.28-.69-.42-1.83,.87-3.95,1.72-6.32,2.56l.62,.45c2.4-.85,4.53-1.72,6.38-2.59m-6.63,2.68c-.21-.15-.41-.3-.62-.45-2.41,.84-5.07,1.67-7.98,2.47,.18,.16,.36,.32,.54,.48,2.94-.81,5.63-1.64,8.06-2.49m-8.36,2.58c-.18-.16-.36-.32-.54-.48-2.9,.79-6.04,1.56-9.4,2.29,.15,.17,.29,.34,.44,.5,3.39-.74,6.56-1.51,9.5-2.31m-9.85,2.39c-.14-.17-.29-.34-.44-.5-3.39,.73-7.01,1.43-10.81,2.08,.11,.17,.22,.35,.33,.52,3.85-.65,7.49-1.36,10.92-2.1m-11.32,2.17c-.11-.18-.22-.35-.33-.52-3.32,.56-6.79,1.09-10.38,1.57-.52,.07-1.04,.14-1.55,.2,.07,.18,.14,.36,.21,.54,.52-.07,1.04-.13,1.57-.21,3.64-.49,7.14-1.02,10.49-1.59m-12.49,1.85c-.07-.18-.13-.36-.2-.54-4.15,.53-8.3,.99-12.41,1.37,.02,.19,.05,.37,.08,.56,4.16-.38,8.35-.85,12.54-1.39m-12.97,1.43c-.02-.19-.04-.37-.07-.56-4.09,.38-8.15,.68-12.13,.9-.02,.19-.04,.38-.05,.57,4.03-.23,8.12-.53,12.25-.91m-12.67,.94c.02-.19,.04-.38,.05-.57-4.01,.22-7.94,.38-11.77,.46-.06,.19-.12,.38-.17,.57,3.87-.08,7.84-.23,11.89-.46m-12.29,.47c.06-.19,.12-.38,.18-.57-3.82,.07-7.53,.08-11.1,0-.1,.19-.19,.38-.29,.57,3.6,.07,7.35,.07,11.21,0m-11.58,0c.1-.19,.19-.38,.29-.57-3.53-.07-6.92-.22-10.13-.43-.13,.19-.27,.38-.39,.57,3.24,.21,6.66,.36,10.23,.43m-10.56-.45c.13-.19,.27-.38,.4-.57-3.21-.22-6.24-.5-9.05-.86l-.49,.56c2.84,.36,5.89,.65,9.14,.87m-9.43-.9c.16-.19,.33-.37,.49-.56-2.77-.35-5.33-.78-7.63-1.27-.19,.18-.38,.36-.57,.54,2.32,.5,4.9,.92,7.71,1.28m-7.94-1.34c.19-.18,.38-.36,.57-.54-2.3-.5-4.33-1.06-6.07-1.69-.21,.17-.42,.35-.63,.52,1.76,.64,3.81,1.2,6.13,1.71m-6.31-1.77c.21-.18,.42-.35,.64-.53-1.71-.63-3.12-1.32-4.2-2.08-.23,.17-.45,.34-.68,.5,1.09,.76,2.52,1.46,4.24,2.1m-4.35-2.18c.22-.17,.45-.34,.68-.5-1.07-.76-1.75-1.56-2.08-2.38l-.7,.48c.33,.83,1.03,1.63,2.1,2.4m-2.13-2.49l.7-.48c-.31-.81-.26-1.65,.12-2.5-.23,.15-.46,.3-.7,.45-.38,.86-.43,1.71-.12,2.53m.16-2.62c.23-.15,.47-.3,.7-.45,.4-.86,1.14-1.73,2.19-2.6-.23,.14-.45,.28-.68,.42-1.06,.88-1.8,1.77-2.21,2.63m2.33-2.72c.22-.14,.45-.28,.67-.42,.63-.51,1.36-1.03,2.2-1.54l-.77,.48c-.8,.5-1.5,.99-2.1,1.49"/><path class="e" d="M162.28,.3c.29,.01,.57,.03,.86,.04,8.26,.42,16.34,1.54,24.2,3.3,.27,.06,.54,.12,.81,.19,7.89,1.82,15.54,4.29,22.88,7.37,.25,.11,.5,.21,.75,.32,7.27,3.09,14.24,6.78,20.84,11,.23,.14,.45,.29,.68,.44,6.21,4.02,12.09,8.53,17.59,13.46l1.76,1.6c-.18-.17-.36-.34-.54-.5-5.81-5.33-12.06-10.16-18.68-14.46-.23-.15-.46-.29-.68-.44-6.61-4.23-13.58-7.92-20.86-11.02-.25-.11-.5-.21-.76-.32-7.35-3.08-15.01-5.56-22.91-7.39-.27-.06-.54-.12-.81-.19-7.86-1.77-15.96-2.9-24.22-3.33-.29-.02-.58-.03-.86-.04-7.97-.37-16.08-.09-24.3,.88,8.21-.98,16.32-1.27,24.27-.91"/><path class="e" d="M162.81,1.14c.3,.02,.59,.05,.88,.07,8.44,.71,16.7,2.1,24.72,4.13,.28,.07,.56,.14,.83,.21,8.06,2.09,15.87,4.81,23.37,8.13,.26,.11,.51,.23,.77,.34,7.43,3.34,14.54,7.25,21.28,11.68,.23,.15,.46,.31,.69,.46,6.76,4.5,13.13,9.53,19.05,15.04,.2,.19,.41,.38,.61,.57,5.85,5.5,11.25,11.47,16.14,17.85,.17,.22,.34,.44,.5,.66,4.88,6.45,9.24,13.32,13,20.55,.13,.25,.26,.5,.38,.74,3.71,7.21,6.82,14.77,9.29,22.64,.09,.27,.17,.54,.25,.81,1.79,5.83,3.22,11.82,4.27,17.95l.67,4.27c-1.07-7.56-2.73-14.93-4.91-22.05-.08-.27-.17-.54-.26-.81-2.47-7.87-5.58-15.43-9.29-22.65-.13-.25-.26-.5-.39-.74-3.77-7.23-8.12-14.1-13.01-20.56-.17-.22-.34-.44-.5-.66-4.89-6.39-10.29-12.36-16.14-17.87-.2-.19-.41-.38-.61-.57-5.92-5.51-12.29-10.55-19.05-15.06-.23-.15-.46-.31-.7-.46-6.74-4.44-13.85-8.36-21.28-11.7-.26-.12-.51-.23-.77-.34-7.5-3.33-15.31-6.06-23.37-8.16-.27-.07-.55-.14-.83-.21-8.02-2.04-16.28-3.44-24.72-4.16-.29-.03-.59-.05-.88-.07-8.13-.64-16.42-.64-24.81,.04,8.39-.7,16.68-.7,24.8-.07"/><path class="e" d="M162.59,2.03c.29,.03,.58,.07,.88,.1,8.36,1,16.55,2.69,24.5,5,.27,.08,.55,.16,.82,.24,7.99,2.37,15.73,5.37,23.16,8.94,.25,.12,.51,.25,.76,.37,7.36,3.59,14.41,7.74,21.09,12.41,.23,.16,.46,.32,.69,.48,6.7,4.73,13.01,9.98,18.88,15.68,.2,.2,.4,.39,.6,.59,5.8,5.69,11.16,11.84,16,18.37,.17,.23,.34,.45,.5,.68,4.84,6.6,9.16,13.61,12.9,20.95l.38,.76c3.68,7.32,6.77,14.97,9.22,22.9,.08,.27,.17,.55,.25,.82,2.42,8,4.19,16.27,5.23,24.77,.04,.29,.07,.59,.11,.88,.18,1.54,.34,3.09,.47,4.64,.23,2.72,.39,5.44,.46,8.09,.12,4.08,.07,8.13-.14,12.15-.02,.28-.03,.57-.05,.85-.48,8.16-1.63,16.18-3.45,23.99-.06,.27-.12,.54-.19,.81-1.87,7.85-4.4,15.48-7.57,22.84-.11,.25-.22,.51-.33,.76-3,6.84-6.55,13.44-10.63,19.75l-1.46,2.2,.09-.12c.15-.23,.31-.46,.46-.69,4.42-6.68,8.24-13.69,11.43-20.98,.11-.26,.22-.51,.33-.76,3.17-7.35,5.7-14.98,7.56-22.82,.07-.27,.13-.54,.19-.81,1.81-7.8,2.97-15.82,3.44-23.98,.02-.28,.03-.56,.05-.84,.21-4.02,.26-8.07,.14-12.15-.07-2.65-.23-5.37-.46-8.09-.13-1.56-.29-3.1-.47-4.64-.03-.29-.07-.59-.11-.88-1.04-8.5-2.81-16.78-5.23-24.78-.09-.27-.17-.55-.25-.82-2.45-7.93-5.54-15.59-9.22-22.91-.13-.26-.26-.5-.38-.76-3.74-7.34-8.06-14.35-12.89-20.96-.17-.23-.34-.45-.5-.68-4.84-6.55-10.2-12.69-15.99-18.4-.2-.19-.4-.39-.6-.59-5.87-5.71-12.18-10.96-18.87-15.7-.23-.16-.46-.32-.69-.49-6.68-4.67-13.72-8.83-21.08-12.43-.26-.12-.51-.25-.76-.37-7.43-3.58-15.16-6.59-23.14-8.97-.27-.08-.55-.16-.82-.24-7.94-2.32-16.13-4.02-24.48-5.03-.29-.04-.58-.07-.87-.11-8.05-.93-16.25-1.23-24.56-.85,8.31-.39,16.52-.1,24.58,.82"/><path class="e" d="M161.66,2.94c.28,.04,.56,.09,.84,.13,8.05,1.31,15.93,3.3,23.58,5.89,.27,.09,.53,.18,.79,.27,7.69,2.66,15.15,5.94,22.31,9.78,.25,.13,.5,.27,.74,.4,7.09,3.85,13.89,8.25,20.33,13.15,.22,.17,.44,.34,.67,.51,6.46,4.97,12.55,10.43,18.22,16.33,.19,.2,.39,.41,.58,.61,5.6,5.89,10.77,12.22,15.46,18.91,.16,.23,.32,.46,.48,.7,4.68,6.76,8.86,13.9,12.48,21.36,.12,.26,.25,.51,.37,.77,3.56,7.43,6.56,15.17,8.95,23.17,.08,.28,.17,.55,.25,.83,2.35,8.06,4.08,16.38,5.11,24.89,.04,.29,.07,.59,.11,.88,.18,1.54,.34,3.09,.47,4.64,.23,2.72,.39,5.44,.47,8.09,.13,4.07,.1,8.11-.09,12.11-.01,.28-.03,.56-.04,.84-.43,8.12-1.52,16.07-3.24,23.78-.06,.27-.12,.53-.18,.8-1.78,7.75-4.19,15.26-7.22,22.48-.11,.25-.21,.5-.32,.75-3.05,7.15-6.71,14-10.94,20.51l-.44,.67c-4.31,6.52-9.21,12.68-14.67,18.42-.19,.2-.38,.39-.57,.59-.77,.8-1.55,1.59-2.34,2.37-4.71,4.65-9.74,8.91-15.04,12.75l-.99,.71-.07,.05s.05-.04,.08-.05c.21-.16,.43-.31,.65-.47,5.36-3.87,10.45-8.17,15.21-12.87,.79-.78,1.57-1.57,2.34-2.37,.19-.19,.37-.39,.56-.59,5.45-5.73,10.34-11.88,14.64-18.4,.15-.22,.3-.45,.44-.67,4.23-6.49,7.88-13.35,10.92-20.49,.11-.25,.21-.5,.32-.75,3.02-7.21,5.43-14.72,7.2-22.47l.18-.8c1.72-7.72,2.8-15.66,3.23-23.78,.02-.28,.03-.56,.04-.84,.19-4,.22-8.03,.1-12.11-.08-2.65-.24-5.36-.47-8.09-.13-1.56-.28-3.11-.46-4.65-.03-.29-.07-.59-.11-.88-1.03-8.51-2.75-16.83-5.1-24.89-.08-.28-.16-.55-.25-.83-2.38-8-5.38-15.74-8.94-23.18-.12-.26-.25-.51-.37-.77-3.61-7.46-7.79-14.61-12.46-21.37-.16-.23-.32-.46-.48-.7-4.68-6.7-9.84-13.03-15.44-18.93-.19-.2-.38-.41-.58-.61-5.66-5.91-11.74-11.38-18.19-16.35-.22-.17-.44-.34-.67-.51-6.43-4.9-13.22-9.32-20.3-13.17-.24-.13-.49-.27-.73-.4-7.15-3.85-14.6-7.13-22.28-9.8-.27-.09-.53-.19-.79-.27-7.64-2.61-15.51-4.6-23.54-5.92l-.84-.13c-7.74-1.23-15.62-1.83-23.61-1.76,8-.08,15.9,.51,23.65,1.73"/><path class="e" d="M160.07,3.86c.26,.05,.52,.11,.79,.17,7.51,1.62,14.87,3.91,22.02,6.79,.25,.1,.5,.2,.74,.3,7.19,2.95,14.16,6.51,20.86,10.62,.23,.14,.46,.28,.69,.42,6.63,4.11,13,8.77,19.03,13.9,.21,.18,.41,.35,.62,.53,6.05,5.2,11.76,10.88,17.08,16.98,.18,.21,.37,.42,.55,.63,5.25,6.09,10.11,12.59,14.52,19.45,.15,.24,.3,.47,.45,.71,4.4,6.93,8.34,14.2,11.76,21.78,.12,.26,.24,.52,.35,.78,3.36,7.55,6.2,15.38,8.47,23.44,.08,.28,.15,.56,.23,.83,2.24,8.13,3.89,16.48,4.91,25.01,.04,.29,.07,.59,.1,.88,.17,1.54,.33,3.09,.46,4.65,.23,2.72,.4,5.44,.48,8.08,.14,4.06,.14,8.09-.02,12.07,0,.28-.02,.56-.04,.84-.35,8.08-1.33,15.95-2.88,23.58-.05,.26-.11,.53-.16,.79-1.61,7.65-3.82,15.05-6.6,22.13-.1,.25-.19,.49-.29,.73-2.8,7.01-6.17,13.7-10.08,20.01-.14,.22-.27,.43-.41,.65-3.98,6.33-8.51,12.28-13.57,17.79-.17,.19-.35,.38-.52,.57-.71,.76-1.44,1.52-2.17,2.27-4.42,4.51-9.14,8.6-14.13,12.25-.2,.15-.4,.29-.6,.44-5.42,3.92-11.14,7.32-17.11,10.19l-.54,.26c6.09-2.9,11.92-6.35,17.44-10.34,.2-.15,.4-.29,.6-.44,4.97-3.64,9.68-7.73,14.08-12.23,.73-.75,1.45-1.5,2.17-2.27,.17-.19,.35-.38,.52-.57,5.04-5.5,9.56-11.44,13.52-17.76,.13-.22,.27-.43,.41-.65,3.9-6.31,7.26-13,10.05-20,.1-.24,.19-.49,.29-.73,2.77-7.07,4.97-14.46,6.57-22.12,.05-.26,.11-.52,.17-.79,1.55-7.62,2.51-15.5,2.87-23.57,.01-.28,.02-.56,.04-.84,.15-3.98,.16-8,.02-12.07-.09-2.64-.26-5.35-.49-8.08-.13-1.56-.29-3.11-.46-4.65-.03-.29-.07-.59-.1-.88-1.01-8.52-2.66-16.88-4.9-25.01-.08-.28-.15-.56-.23-.84-2.26-8.06-5.1-15.9-8.46-23.45-.12-.26-.23-.52-.35-.78-3.41-7.58-7.34-14.86-11.73-21.79-.15-.24-.3-.47-.45-.71-4.4-6.86-9.24-13.37-14.48-19.47-.18-.21-.36-.42-.54-.63-5.3-6.11-11-11.8-17.04-17-.2-.18-.41-.36-.62-.53-6.02-5.14-12.36-9.8-18.98-13.92-.23-.14-.46-.28-.69-.42-6.68-4.11-13.63-7.68-20.8-10.64-.25-.1-.49-.2-.74-.3-7.13-2.9-14.47-5.19-21.96-6.82-.26-.06-.53-.11-.79-.17-7.21-1.53-14.56-2.44-21.99-2.68,7.45,.23,14.83,1.13,22.06,2.65"/><path class="e" d="M157.87,4.75c.24,.06,.47,.13,.71,.2,6.77,1.92,13.41,4.5,19.86,7.67,.22,.11,.45,.22,.67,.33,6.49,3.23,12.79,7.06,18.85,11.43,.21,.15,.42,.3,.62,.45,6,4.37,11.77,9.27,17.24,14.63,.19,.18,.38,.37,.57,.56,5.48,5.43,10.67,11.32,15.51,17.62,.17,.22,.33,.43,.5,.65,4.78,6.28,9.21,12.96,13.23,19.98,.14,.24,.28,.49,.42,.73,4.02,7.08,7.63,14.5,10.77,22.18,.11,.26,.21,.53,.32,.79,3.09,7.65,5.71,15.58,7.82,23.71,.07,.28,.14,.56,.22,.84,2.08,8.19,3.64,16.58,4.63,25.12,.04,.3,.07,.59,.1,.89,.17,1.55,.32,3.1,.45,4.65,.23,2.72,.4,5.44,.5,8.07,.16,4.05,.19,8.06,.09,12.02,0,.28-.02,.56-.03,.83-.25,8.03-1.05,15.84-2.39,23.37-.04,.26-.09,.52-.14,.78-1.38,7.56-3.3,14.84-5.74,21.78-.09,.24-.17,.48-.26,.72-2.46,6.87-5.43,13.4-8.9,19.53-.12,.21-.24,.42-.36,.63-3.52,6.15-7.55,11.89-12.05,17.17-.16,.18-.31,.36-.47,.54-.64,.73-1.28,1.46-1.94,2.18-3.94,4.32-8.15,8.2-12.6,11.63-.18,.14-.36,.27-.54,.41-5.24,3.99-10.81,7.36-16.64,10.09-.2,.09-.4,.19-.6,.28-2.29,1.05-4.62,2.01-6.99,2.87l-.38,.13c2.43-.87,4.82-1.85,7.17-2.93,.2-.09,.4-.19,.6-.28,5.8-2.72,11.35-6.09,16.57-10.07l.54-.41c4.43-3.43,8.63-7.3,12.54-11.61,.65-.72,1.29-1.44,1.93-2.18,.15-.18,.31-.36,.46-.54,4.49-5.27,8.49-11.01,12-17.15,.12-.21,.24-.42,.36-.64,3.45-6.12,6.41-12.65,8.86-19.52,.09-.24,.17-.48,.25-.72,2.43-6.93,4.34-14.21,5.71-21.77,.05-.26,.09-.52,.14-.78,1.33-7.53,2.13-15.34,2.38-23.37,0-.28,.01-.55,.02-.83,.11-3.95,.07-7.96-.09-12.02-.1-2.63-.27-5.34-.5-8.07-.13-1.55-.29-3.11-.46-4.65-.03-.3-.06-.59-.1-.89-.98-8.53-2.54-16.93-4.62-25.12-.07-.28-.14-.56-.21-.84-2.1-8.13-4.72-16.05-7.8-23.71-.11-.27-.21-.53-.32-.79-3.13-7.69-6.72-15.11-10.73-22.2-.14-.25-.27-.49-.41-.73-4.01-7.02-8.42-13.7-13.18-20-.17-.22-.33-.43-.5-.65-4.81-6.3-9.98-12.21-15.45-17.64-.19-.19-.38-.37-.56-.56-5.45-5.37-11.19-10.28-17.17-14.66-.21-.15-.41-.3-.62-.45-6.04-4.38-12.31-8.22-18.78-11.46-.22-.11-.44-.22-.66-.33-6.43-3.18-13.04-5.77-19.78-7.7-.24-.07-.47-.13-.71-.2-6.49-1.82-13.1-3.03-19.78-3.57,6.71,.53,13.34,1.73,19.86,3.54"/><path class="e" d="M155.1,5.61c.2,.08,.41,.15,.61,.23,5.83,2.21,11.56,5.07,17.14,8.52,.19,.12,.39,.24,.58,.36,5.61,3.51,11.06,7.6,16.31,12.22,.18,.16,.36,.32,.54,.48,5.2,4.62,10.21,9.75,14.96,15.34,.17,.19,.33,.38,.5,.58,4.77,5.65,9.3,11.76,13.52,18.24,.14,.22,.29,.45,.43,.67,4.18,6.48,8.05,13.32,11.59,20.49,.12,.25,.24,.5,.37,.74,3.53,7.23,6.71,14.78,9.5,22.58,.1,.27,.19,.53,.28,.8,2.74,7.76,5.09,15.77,7,23.96,.06,.28,.13,.57,.19,.85,1.89,8.25,3.33,16.68,4.27,25.23,.03,.3,.07,.59,.1,.89,.17,1.55,.32,3.1,.45,4.65,.23,2.72,.41,5.43,.53,8.06,.19,4.05,.27,8.04,.22,11.98v.83c-.13,7.99-.73,15.74-1.78,23.19-.04,.26-.08,.51-.12,.77-1.1,7.47-2.65,14.64-4.66,21.44-.07,.24-.14,.47-.21,.71-2.03,6.73-4.5,13.11-7.4,19.06-.1,.21-.2,.42-.3,.62-2.95,5.97-6.33,11.51-10.13,16.57-.13,.17-.26,.35-.4,.52-.53,.71-1.08,1.4-1.63,2.09-3.33,4.12-6.89,7.8-10.67,11.03-.15,.13-.3,.26-.46,.38-4.45,3.74-9.19,6.86-14.16,9.32-.17,.08-.34,.17-.51,.25-3.55,1.72-7.21,3.12-10.98,4.18l-.25,.07c3.77-1.05,7.44-2.45,10.99-4.18,.17-.08,.34-.17,.51-.25,4.94-2.46,9.65-5.56,14.07-9.29,.15-.13,.3-.26,.45-.39,3.75-3.22,7.3-6.9,10.6-11.01,.55-.69,1.09-1.38,1.62-2.08,.13-.17,.26-.34,.39-.52,3.78-5.05,7.13-10.59,10.06-16.55,.1-.2,.2-.41,.3-.61,2.88-5.95,5.33-12.32,7.35-19.05,.07-.24,.14-.47,.21-.71,2-6.8,3.54-13.96,4.63-21.43,.04-.26,.07-.51,.11-.77,1.05-7.44,1.64-15.19,1.75-23.18,0-.27,0-.55,0-.83,.04-3.94-.03-7.93-.22-11.98-.12-2.63-.3-5.34-.53-8.06-.13-1.55-.28-3.11-.44-4.65-.03-.29-.06-.59-.1-.89-.95-8.55-2.38-16.98-4.26-25.23-.06-.28-.13-.57-.19-.85-1.9-8.19-4.24-16.2-6.97-23.97-.1-.27-.19-.54-.28-.81-2.77-7.8-5.94-15.35-9.46-22.59-.12-.25-.24-.5-.36-.74-3.52-7.17-7.38-14.02-11.53-20.51-.14-.22-.29-.44-.43-.67-4.2-6.49-8.7-12.61-13.45-18.26-.16-.19-.33-.39-.49-.58-4.73-5.59-9.71-10.73-14.89-15.36-.18-.16-.35-.32-.54-.48-5.22-4.63-10.65-8.73-16.22-12.24-.19-.12-.38-.24-.58-.36-5.55-3.45-11.24-6.32-17.04-8.55-.2-.08-.41-.16-.61-.23-5.58-2.1-11.26-3.59-16.99-4.43,5.76,.83,11.47,2.32,17.09,4.4"/><path class="e" d="M151.82,6.41c.17,.08,.33,.17,.5,.26,4.72,2.48,9.38,5.61,13.92,9.3,.16,.13,.31,.26,.47,.39,4.57,3.76,9.02,8.1,13.32,12.95,.15,.17,.3,.34,.44,.5,4.26,4.85,8.37,10.2,12.3,15.99,.13,.2,.27,.4,.41,.6,3.93,5.86,7.67,12.15,11.17,18.81,.12,.23,.24,.46,.36,.69,3.46,6.64,6.7,13.65,9.66,20.96,.1,.25,.2,.5,.31,.76,2.96,7.37,5.64,15.04,8.01,22.94,.08,.27,.16,.54,.24,.81,2.34,7.86,4.36,15.95,6.03,24.2,.06,.28,.12,.57,.17,.86,1.65,8.31,2.95,16.77,3.86,25.33,.03,.29,.06,.59,.09,.89,.16,1.55,.3,3.1,.43,4.66,.23,2.72,.42,5.43,.56,8.05,.22,4.04,.34,8.02,.37,11.94,0,.27,0,.55,0,.82,.04,7.95-.31,15.64-1.04,23-.03,.26-.05,.51-.08,.76-.76,7.39-1.89,14.46-3.4,21.13-.05,.23-.11,.46-.16,.69-1.52,6.61-3.4,12.84-5.64,18.63-.08,.2-.15,.4-.23,.6-2.27,5.8-4.9,11.16-7.88,16.02-.1,.17-.2,.33-.3,.5-.42,.68-.85,1.34-1.28,2-2.61,3.95-5.41,7.44-8.4,10.48-.12,.12-.24,.24-.36,.36-3.52,3.51-7.28,6.39-11.23,8.6-.14,.07-.27,.15-.41,.23-3.38,1.85-6.91,3.22-10.55,4.1l-.24,.05c3.63-.88,7.14-2.25,10.51-4.1,.14-.07,.27-.15,.41-.23,3.92-2.21,7.64-5.07,11.13-8.58,.12-.12,.24-.24,.36-.36,2.96-3.03,5.74-6.52,8.32-10.46,.43-.65,.85-1.32,1.27-1.99,.1-.17,.2-.33,.3-.5,2.95-4.85,5.55-10.2,7.79-16,.08-.2,.15-.4,.23-.6,2.21-5.79,4.07-12.01,5.57-18.62,.05-.23,.1-.46,.16-.69,1.49-6.68,2.61-13.74,3.35-21.12,.03-.25,.05-.51,.08-.76,.71-7.36,1.05-15.05,1.01-23,0-.27,0-.55,0-.82-.04-3.92-.16-7.9-.38-11.94-.14-2.62-.33-5.33-.56-8.05-.13-1.56-.27-3.11-.43-4.66-.03-.3-.06-.59-.09-.89-.9-8.55-2.19-17.02-3.84-25.34l-.17-.85c-1.66-8.25-3.67-16.34-5.99-24.21l-.24-.81c-2.36-7.9-5.02-15.57-7.97-22.95-.1-.25-.2-.5-.3-.76-2.94-7.31-6.16-14.32-9.59-20.98-.12-.23-.24-.46-.36-.69-3.48-6.67-7.19-12.97-11.09-18.83-.13-.2-.27-.4-.4-.6-3.89-5.79-7.97-11.15-12.2-16.01-.14-.17-.29-.34-.44-.5-4.27-4.86-8.69-9.21-13.22-12.97-.16-.13-.31-.26-.47-.39-4.51-3.71-9.12-6.84-13.81-9.33l-.49-.26c-4.51-2.35-9.09-4.12-13.7-5.23,4.65,1.1,9.26,2.86,13.82,5.2"/><path class="e" d="M148.06,7.14c.12,.09,.24,.19,.36,.28,3.46,2.73,6.87,6.09,10.23,10.02,.12,.14,.23,.27,.35,.41,3.37,3.99,6.68,8.55,9.88,13.61,.11,.17,.22,.35,.33,.52,3.18,5.06,6.26,10.61,9.21,16.59,.1,.2,.2,.41,.31,.62,2.96,6.04,5.8,12.51,8.48,19.34,.09,.23,.19,.47,.27,.7,2.65,6.8,5.14,13.95,7.44,21.39,.08,.26,.16,.51,.24,.77,2.31,7.5,4.42,15.28,6.31,23.27,.07,.27,.13,.55,.19,.82,1.87,7.95,3.51,16.12,4.91,24.42,.05,.29,.1,.58,.14,.86,1.39,8.36,2.53,16.86,3.38,25.42,.03,.29,.06,.59,.09,.89,.15,1.55,.29,3.1,.42,4.66,.23,2.72,.43,5.43,.59,8.05,.26,4.03,.44,8.01,.56,11.91,0,.27,.02,.55,.02,.82,.22,7.92,.15,15.55-.19,22.84-.01,.25-.03,.5-.04,.75-.36,7.31-1.01,14.28-1.93,20.85-.04,.23-.06,.45-.1,.68-.93,6.49-2.14,12.6-3.6,18.24-.05,.19-.1,.39-.15,.58-1.5,5.65-3.26,10.84-5.28,15.52-.07,.16-.14,.32-.21,.48-.29,.65-.58,1.29-.87,1.92-1.78,3.79-3.71,7.11-5.79,9.97l-.25,.35c-2.44,3.3-5.08,5.96-7.86,7.95-.1,.07-.19,.14-.29,.2-2.78,1.93-5.71,3.21-8.77,3.81l-.23,.04s.03,0,.04,0c3.02-.6,5.92-1.87,8.66-3.8,.09-.07,.19-.13,.28-.2,2.75-1.99,5.34-4.64,7.75-7.93,.08-.11,.16-.23,.25-.34,2.04-2.85,3.95-6.17,5.69-9.96,.29-.63,.58-1.27,.86-1.91,.07-.16,.14-.32,.21-.48,1.99-4.67,3.72-9.86,5.18-15.5,.05-.19,.1-.39,.15-.58,1.44-5.64,2.62-11.73,3.53-18.23,.03-.22,.06-.45,.1-.68,.9-6.56,1.53-13.53,1.88-20.84,.01-.25,.03-.5,.04-.75,.33-7.29,.39-14.92,.17-22.84,0-.27-.02-.55-.03-.82-.12-3.9-.31-7.87-.56-11.91-.16-2.62-.36-5.32-.59-8.05-.13-1.56-.27-3.11-.42-4.66-.03-.29-.06-.59-.09-.89-.85-8.57-1.98-17.06-3.36-25.43-.05-.28-.1-.57-.14-.86-1.39-8.3-3.02-16.46-4.87-24.42l-.19-.82c-1.88-7.99-3.97-15.77-6.25-23.28-.08-.26-.16-.52-.24-.77-2.28-7.44-4.74-14.59-7.36-21.4-.09-.24-.18-.47-.27-.71-2.65-6.83-5.46-13.3-8.39-19.35-.1-.21-.2-.42-.3-.62-2.92-5.98-5.96-11.54-9.1-16.6-.11-.18-.22-.35-.33-.52-3.17-5.07-6.43-9.63-9.76-13.64-.12-.14-.23-.27-.34-.41-3.31-3.93-6.69-7.3-10.1-10.04-.12-.1-.24-.19-.36-.28-3.28-2.59-6.6-4.6-9.92-5.95,3.36,1.35,6.72,3.34,10.05,5.93"/><path class="e" d="M143.9,7.76c.07,.1,.14,.2,.21,.31,2.05,2.94,4.1,6.51,6.14,10.63,.07,.14,.14,.28,.21,.43,2.05,4.19,4.09,8.94,6.08,14.19,.07,.18,.14,.36,.2,.54,1.98,5.24,3.93,10.96,5.81,17.09,.06,.21,.13,.42,.19,.64,1.9,6.2,3.74,12.82,5.5,19.78,.06,.24,.12,.48,.18,.72,1.75,6.94,3.41,14.22,4.99,21.76,.05,.26,.11,.52,.16,.78,1.58,7.61,3.06,15.48,4.42,23.55,.04,.28,.09,.56,.14,.83,1.35,8.03,2.58,16.26,3.67,24.6,.04,.29,.08,.58,.11,.86,1.1,8.4,2.05,16.93,2.85,25.5,.03,.3,.05,.59,.08,.89,.14,1.55,.28,3.11,.41,4.66,.23,2.72,.44,5.43,.63,8.04,.29,4.03,.54,7.99,.75,11.88,.02,.27,.03,.54,.04,.82,.41,7.89,.66,15.47,.73,22.7,0,.25,0,.5,0,.75,.06,7.25-.05,14.14-.32,20.61-.01,.22-.02,.45-.03,.67-.29,6.4-.74,12.39-1.36,17.9-.02,.19-.04,.38-.06,.57-.64,5.52-1.43,10.57-2.4,15.08-.04,.16-.07,.31-.1,.47-.14,.63-.27,1.24-.42,1.85-.86,3.65-1.83,6.83-2.89,9.54-.04,.11-.08,.22-.13,.32-1.26,3.13-2.65,5.6-4.14,7.4-.05,.06-.11,.12-.16,.18-1.5,1.74-3.11,2.82-4.82,3.22-.06,.02-.12,.03-.18,.04-.16,.04-.32,.06-.48,.08l-.19,.03c.16-.02,.31-.05,.47-.08,.06-.01,.11-.03,.18-.04,1.66-.4,3.22-1.47,4.68-3.2,.05-.06,.1-.12,.15-.18,1.46-1.79,2.8-4.26,4.02-7.38,.04-.11,.08-.21,.12-.32,1.03-2.7,1.96-5.88,2.8-9.53,.14-.61,.27-1.22,.4-1.85,.04-.15,.07-.31,.1-.46,.93-4.51,1.7-9.55,2.3-15.07,.02-.19,.04-.38,.06-.57,.59-5.51,1.02-11.5,1.28-17.9,0-.22,.02-.44,.03-.67,.25-6.47,.34-13.35,.27-20.6,0-.25,0-.5,0-.75-.09-7.23-.35-14.81-.77-22.7-.02-.27-.03-.55-.05-.81-.21-3.89-.46-7.85-.76-11.88-.19-2.62-.4-5.32-.63-8.04-.13-1.55-.27-3.11-.41-4.66-.03-.3-.05-.59-.08-.89-.8-8.57-1.75-17.1-2.83-25.5-.04-.29-.07-.58-.11-.86-1.08-8.35-2.3-16.57-3.63-24.61-.05-.28-.09-.56-.14-.83-1.35-8.07-2.8-15.95-4.36-23.56-.05-.26-.11-.52-.16-.78-1.55-7.54-3.19-14.82-4.91-21.77-.06-.24-.12-.48-.18-.72-1.73-6.96-3.54-13.59-5.4-19.8-.06-.21-.13-.42-.19-.64-1.85-6.14-3.76-11.86-5.7-17.11-.07-.18-.13-.36-.2-.54-1.96-5.25-3.94-10.01-5.95-14.2-.07-.14-.14-.29-.21-.43-1.99-4.13-4-7.7-6-10.65-.07-.1-.14-.2-.21-.31-1.93-2.79-3.85-5.01-5.75-6.57,1.95,1.56,3.92,3.77,5.89,6.55"/><path class="e" d="M139.57,8.25c.02,.11,.04,.21,.06,.32,.59,3.1,1.22,6.83,1.89,11.11,.03,.14,.05,.29,.07,.44,.67,4.34,1.39,9.24,2.12,14.62,.02,.19,.05,.37,.07,.56,.73,5.38,1.49,11.24,2.27,17.49,.03,.22,.05,.43,.08,.65,.78,6.33,1.58,13.06,2.4,20.13,.03,.24,.05,.48,.08,.73,.81,7.04,1.63,14.41,2.44,22.04,.03,.26,.06,.52,.09,.79,.82,7.69,1.65,15.63,2.46,23.77,.03,.28,.05,.56,.08,.84,.81,8.09,1.6,16.37,2.39,24.74,.03,.29,.05,.58,.08,.87,.78,8.44,1.55,16.99,2.29,25.56,.03,.3,.05,.59,.08,.89,.13,1.56,.27,3.11,.4,4.66,.23,2.72,.46,5.43,.68,8.04,.33,4.03,.65,7.98,.96,11.86,.02,.27,.04,.54,.06,.81,.62,7.86,1.19,15.41,1.71,22.59,.02,.25,.04,.5,.05,.74,.51,7.2,.97,14.03,1.36,20.42,.01,.22,.03,.44,.04,.66,.39,6.33,.72,12.23,.98,17.64,0,.19,.02,.37,.03,.56,.26,5.42,.46,10.36,.59,14.76,0,.15,0,.3,.01,.45,.02,.61,.04,1.21,.05,1.8,.09,3.55,.13,6.62,.12,9.2,0,.11,0,.21,0,.31-.02,2.99-.11,5.32-.27,6.96,0,.05-.01,.11-.02,.17-.16,1.59-.39,2.52-.69,2.76,0,0-.02,.02-.03,.03-.04,.02-.07,.04-.11,.04l-.18,.02s.06-.02,.09-.04c0,0,.02-.01,.03-.02,.25-.24,.43-1.16,.55-2.75,0-.05,0-.11,.01-.17,.11-1.65,.16-3.97,.14-6.95,0-.1,0-.21,0-.31-.02-2.58-.09-5.65-.21-9.19-.02-.59-.04-1.19-.06-1.8,0-.15,0-.3-.02-.45-.17-4.39-.4-9.32-.69-14.75,0-.19-.02-.37-.03-.56-.29-5.41-.65-11.31-1.06-17.64-.02-.22-.03-.44-.04-.66-.42-6.39-.89-13.22-1.42-20.42-.02-.25-.04-.49-.05-.74-.53-7.18-1.11-14.73-1.73-22.59-.02-.27-.04-.55-.06-.82-.31-3.88-.64-7.83-.97-11.85-.22-2.61-.44-5.31-.67-8.03-.13-1.56-.26-3.11-.4-4.66-.03-.3-.05-.59-.07-.89-.74-8.58-1.5-17.13-2.28-25.57-.03-.29-.05-.58-.08-.87-.77-8.38-1.56-16.66-2.34-24.75-.03-.28-.05-.56-.08-.84-.8-8.13-1.59-16.08-2.39-23.77-.03-.27-.05-.53-.08-.79-.79-7.63-1.58-15-2.35-22.05-.03-.24-.05-.49-.08-.73-.78-7.07-1.55-13.81-2.3-20.13-.03-.22-.05-.43-.07-.65-.74-6.26-1.46-12.12-2.16-17.5-.03-.19-.05-.37-.07-.56-.7-5.39-1.36-10.29-1.99-14.64-.02-.15-.04-.3-.06-.44-.62-4.28-1.21-8.01-1.75-11.12-.02-.11-.04-.22-.06-.32-.51-2.95-.99-5.32-1.42-7.05,.48,1.73,1,4.09,1.56,7.04"/><path class="c" d="M135.33,8.57c-.03,.11-.06,.22-.09,.33-.84,3.21-1.6,7.04-2.27,11.42-.02,.15-.04,.3-.07,.45-.67,4.45-1.25,9.44-1.75,14.92-.02,.19-.04,.38-.05,.57-.48,5.47-.88,11.41-1.19,17.75,0,.22-.02,.44-.03,.66-.31,6.41-.52,13.22-.64,20.36,0,.25,0,.49-.01,.73-.11,7.11-.13,14.55-.06,22.23,0,.26,0,.53,0,.8,.08,7.75,.26,15.74,.53,23.91,0,.28,.02,.56,.03,.84,.28,8.13,.65,16.44,1.13,24.84,.02,.29,.03,.58,.05,.87,.49,8.46,1.07,17.02,1.75,25.6,.03,.3,.05,.59,.07,.89,.12,1.56,.26,3.11,.39,4.66,.23,2.72,.47,5.42,.71,8.03,.37,4.02,.76,7.97,1.16,11.84,.03,.27,.05,.55,.08,.81,.82,7.85,1.71,15.38,2.65,22.52,.03,.25,.07,.49,.1,.74,.95,7.17,1.96,13.95,3.01,20.3,.04,.22,.07,.44,.11,.66,1.05,6.28,2.14,12.12,3.26,17.47,.04,.19,.08,.37,.12,.55,1.14,5.36,2.31,10.22,3.51,14.53,.04,.15,.08,.3,.12,.44,.17,.6,.34,1.19,.5,1.77,1.02,3.48,2.04,6.47,3.06,8.98,.04,.1,.08,.2,.12,.3,1.19,2.9,2.36,5.13,3.52,6.68,.04,.05,.08,.11,.12,.16,1.15,1.49,2.27,2.32,3.36,2.46h.12c.12,.02,.24,.02,.35,.02h-.18c-.12,.02-.24,.01-.36,0-.04,0-.08,0-.12-.01-1.13-.14-2.3-.96-3.49-2.45-.04-.05-.08-.11-.12-.16-1.2-1.55-2.42-3.78-3.64-6.67-.04-.1-.08-.2-.12-.3-1.05-2.51-2.1-5.5-3.15-8.97-.17-.58-.35-1.16-.52-1.76-.04-.15-.08-.29-.12-.44-1.24-4.31-2.44-9.17-3.61-14.53-.04-.19-.08-.37-.12-.55-1.16-5.35-2.27-11.19-3.34-17.47-.04-.22-.07-.44-.11-.65-1.07-6.35-2.09-13.13-3.06-20.29-.04-.25-.07-.49-.1-.74-.95-7.15-1.85-14.68-2.68-22.52-.03-.27-.06-.54-.09-.81-.41-3.87-.8-7.82-1.17-11.84-.24-2.61-.49-5.31-.72-8.03-.13-1.56-.26-3.11-.38-4.66-.03-.3-.05-.59-.07-.89-.68-8.58-1.26-17.14-1.73-25.61-.02-.29-.03-.58-.05-.87-.46-8.4-.83-16.71-1.09-24.84,0-.28-.02-.56-.03-.84-.26-8.17-.42-16.17-.47-23.92,0-.27,0-.53,0-.8-.05-7.68,0-15.12,.14-22.23,0-.25,.01-.49,.02-.73,.15-7.14,.4-13.95,.73-20.36,.01-.22,.03-.44,.04-.66,.35-6.34,.78-12.28,1.31-17.76,.02-.19,.04-.37,.05-.56,.53-5.48,1.16-10.48,1.88-14.93,.03-.15,.05-.3,.07-.45,.72-4.38,1.52-8.21,2.41-11.43,.03-.11,.06-.23,.1-.34,.86-3.05,1.8-5.53,2.81-7.36-.97,1.83-1.86,4.31-2.68,7.36"/><path class="c" d="M131.22,8.73c-.08,.11-.16,.23-.23,.34-2.23,3.27-4.33,7.15-6.31,11.58-.07,.15-.14,.31-.2,.46-1.98,4.5-3.82,9.54-5.51,15.07-.06,.19-.12,.38-.17,.57-1.67,5.52-3.19,11.5-4.55,17.88-.05,.22-.1,.44-.14,.66-1.36,6.45-2.56,13.3-3.58,20.47l-.11,.74c-1,7.15-1.83,14.61-2.48,22.32-.02,.27-.04,.53-.06,.8-.64,7.78-1.09,15.8-1.34,23.99,0,.28-.02,.57-.02,.85-.23,8.15-.27,16.47-.09,24.89l.02,.87c.19,8.47,.6,17.04,1.23,25.63l.07,.89c.12,1.55,.24,3.11,.37,4.66,.23,2.72,.48,5.42,.75,8.03,.41,4.02,.86,7.96,1.36,11.83,.04,.27,.07,.54,.11,.81,1.02,7.84,2.21,15.35,3.57,22.49l.14,.74c1.37,7.15,2.91,13.91,4.6,20.23,.05,.22,.11,.44,.18,.65,1.68,6.25,3.51,12.06,5.48,17.38,.06,.19,.13,.37,.2,.55,1.99,5.32,4.11,10.15,6.35,14.42,.08,.15,.15,.29,.23,.44,.32,.59,.63,1.18,.95,1.75,1.92,3.44,3.9,6.4,5.91,8.87,.08,.1,.16,.2,.24,.29,2.36,2.85,4.77,5.03,7.2,6.53,.08,.05,.17,.1,.25,.15,2.42,1.44,4.85,2.21,7.28,2.3,.09,0,.17,0,.26,0,.15,0,.29,0,.44,0h-.19c-.14,0-.29,0-.43,0-.09,0-.18,0-.26,0-2.47-.08-4.95-.86-7.4-2.3-.08-.05-.17-.1-.25-.15-2.47-1.5-4.92-3.68-7.32-6.53-.08-.1-.16-.19-.25-.3-2.04-2.47-4.05-5.43-6.01-8.86-.32-.57-.65-1.15-.96-1.75-.08-.14-.16-.29-.24-.44-2.27-4.27-4.43-9.09-6.44-14.42-.07-.19-.14-.37-.21-.55-1.99-5.32-3.85-11.13-5.56-17.38-.06-.22-.12-.43-.18-.65-1.71-6.32-3.26-13.08-4.65-20.23-.05-.25-.1-.49-.14-.73-1.37-7.13-2.57-14.65-3.6-22.49-.04-.27-.07-.54-.11-.81-.5-3.87-.95-7.81-1.36-11.83-.27-2.61-.52-5.31-.75-8.03-.13-1.55-.26-3.11-.38-4.66-.02-.3-.04-.59-.06-.89-.63-8.59-1.03-17.15-1.21-25.63,0-.29,0-.58-.02-.87-.17-8.41-.12-16.73,.13-24.89,.01-.28,.02-.56,.03-.84,.27-8.19,.73-16.21,1.39-23.99,.02-.27,.05-.54,.07-.8,.67-7.71,1.52-15.17,2.56-22.32,.04-.25,.07-.5,.11-.74,1.05-7.17,2.28-14.02,3.67-20.48l.14-.66c1.4-6.38,2.95-12.37,4.66-17.89,.06-.19,.12-.38,.18-.57,1.73-5.52,3.61-10.57,5.63-15.07,.07-.15,.14-.31,.2-.46,2.02-4.43,4.17-8.31,6.44-11.58,.08-.11,.16-.23,.24-.34,2.2-3.1,4.51-5.63,6.92-7.52-2.37,1.89-4.64,4.42-6.79,7.52"/><path class="c" d="M127.35,8.73c-.12,.11-.25,.22-.37,.34-3.54,3.27-6.92,7.15-10.12,11.58-.11,.15-.22,.31-.33,.46-3.21,4.5-6.23,9.55-9.05,15.07-.09,.19-.19,.38-.29,.57-2.78,5.52-5.37,11.51-7.72,17.89-.08,.22-.16,.44-.24,.66-2.35,6.45-4.48,13.31-6.35,20.48-.06,.25-.13,.5-.19,.74-1.84,7.15-3.44,14.61-4.76,22.33-.04,.27-.09,.53-.14,.8-1.31,7.78-2.35,15.8-3.09,23.99-.03,.28-.05,.57-.08,.85-.72,8.15-1.14,16.47-1.24,24.89v.87c-.09,8.47,.14,17.04,.72,25.63,.02,.3,.04,.59,.06,.89,.11,1.56,.23,3.11,.36,4.66,.23,2.72,.5,5.42,.79,8.03,.45,4.02,.96,7.96,1.55,11.83,.04,.27,.08,.54,.12,.81,1.21,7.84,2.69,15.36,4.44,22.49,.06,.25,.12,.49,.18,.74,1.78,7.15,3.82,13.91,6.1,20.23,.08,.22,.16,.43,.24,.65,2.29,6.25,4.82,12.06,7.58,17.38,.09,.19,.19,.37,.28,.55,2.79,5.33,5.8,10.15,9.03,14.42,.11,.15,.22,.29,.33,.44,.45,.59,.91,1.18,1.37,1.75,2.78,3.44,5.65,6.4,8.6,8.86,.12,.1,.24,.2,.36,.3,3.46,2.85,7.03,5.03,10.66,6.53,.13,.05,.25,.1,.37,.15,3.61,1.44,7.28,2.21,10.98,2.29h-.17c-3.73-.09-7.45-.86-11.09-2.3-.13-.05-.25-.1-.38-.15-3.67-1.5-7.27-3.68-10.78-6.53-.12-.1-.24-.19-.36-.29-2.98-2.47-5.88-5.43-8.69-8.87-.47-.57-.93-1.15-1.38-1.75-.11-.14-.22-.29-.34-.44-3.26-4.27-6.3-9.09-9.11-14.42-.1-.19-.19-.37-.29-.55-2.78-5.32-5.33-11.13-7.64-17.38-.08-.22-.16-.43-.24-.65-2.3-6.32-4.36-13.08-6.15-20.23-.06-.24-.12-.49-.18-.73-1.76-7.13-3.26-14.65-4.47-22.49-.04-.27-.09-.54-.12-.81-.59-3.87-1.11-7.81-1.55-11.83-.29-2.61-.56-5.31-.79-8.03-.13-1.56-.25-3.11-.36-4.66-.02-.3-.04-.6-.06-.89-.58-8.58-.81-17.15-.72-25.63,0-.29,0-.58,.01-.87,.11-8.41,.55-16.73,1.28-24.89l.08-.84c.76-8.19,1.81-16.21,3.15-23.99,.04-.27,.09-.53,.14-.8,1.35-7.71,2.96-15.18,4.84-22.33l.19-.74c1.9-7.17,4.06-14.02,6.45-20.48,.08-.22,.16-.44,.25-.66,2.39-6.38,5-12.37,7.82-17.89,.1-.19,.19-.38,.29-.57,2.85-5.52,5.92-10.57,9.16-15.07,.11-.16,.22-.31,.34-.46,3.24-4.43,6.65-8.31,10.24-11.58,.12-.11,.25-.23,.37-.34,3.46-3.1,7.06-5.63,10.78-7.52-3.69,1.89-7.25,4.42-10.66,7.52"/><path class="e" d="M123.81,8.59c-.17,.11-.33,.22-.5,.33-4.73,3.22-9.27,7.06-13.59,11.44-.15,.15-.3,.3-.45,.45-4.33,4.45-8.44,9.46-12.29,14.94-.13,.19-.26,.38-.39,.57-3.8,5.48-7.35,11.42-10.61,17.77-.12,.22-.23,.44-.34,.66-3.26,6.41-6.24,13.23-8.89,20.37-.09,.25-.18,.49-.27,.74-2.61,7.12-4.9,14.55-6.85,22.24l-.2,.8c-1.93,7.75-3.51,15.75-4.7,23.92-.04,.28-.08,.56-.12,.84-1.16,8.14-1.93,16.44-2.3,24.85-.01,.29-.02,.58-.04,.87-.34,8.47-.25,17.03,.28,25.61,.02,.3,.04,.59,.06,.89,.11,1.56,.22,3.11,.35,4.66,.23,2.72,.5,5.42,.82,8.03,.48,4.02,1.05,7.97,1.71,11.84l.14,.81c1.37,7.85,3.12,15.37,5.23,22.52,.07,.25,.15,.49,.22,.74,2.14,7.16,4.64,13.94,7.48,20.29,.1,.22,.2,.44,.3,.65,2.84,6.27,6.01,12.11,9.48,17.46,.12,.19,.24,.37,.36,.55,3.52,5.35,7.35,10.21,11.47,14.52,.14,.15,.28,.29,.42,.44,.58,.6,1.17,1.19,1.76,1.76,3.56,3.47,7.25,6.46,11.06,8.96,.15,.1,.31,.2,.46,.3,4.48,2.89,9.1,5.11,13.83,6.66,.16,.05,.32,.11,.49,.16,4.02,1.27,8.11,2.05,12.25,2.34l-.26-.02c-4.14-.29-8.23-1.07-12.26-2.34-.16-.05-.33-.1-.49-.16-4.76-1.54-9.42-3.77-13.93-6.67-.15-.1-.31-.2-.46-.3-3.84-2.51-7.56-5.5-11.14-8.97-.59-.58-1.19-1.16-1.77-1.76-.14-.14-.28-.29-.42-.44-4.15-4.31-8.01-9.17-11.55-14.53-.12-.18-.24-.37-.36-.55-3.5-5.35-6.69-11.19-9.55-17.46-.1-.22-.2-.44-.3-.66-2.85-6.34-5.37-13.13-7.52-20.29l-.22-.74c-2.11-7.15-3.87-14.67-5.25-22.52l-.14-.81c-.66-3.87-1.24-7.82-1.72-11.84-.31-2.61-.59-5.31-.82-8.03-.13-1.56-.25-3.11-.35-4.66-.02-.3-.04-.59-.06-.89-.53-8.59-.61-17.14-.27-25.61,0-.29,.02-.58,.04-.87,.37-8.4,1.16-16.71,2.33-24.84,.04-.28,.08-.56,.12-.84,1.2-8.17,2.8-16.17,4.75-23.92,.07-.27,.13-.53,.2-.8,1.96-7.68,4.28-15.12,6.91-22.23,.1-.25,.18-.49,.27-.73,2.68-7.14,5.68-13.95,8.97-20.37,.11-.22,.23-.44,.34-.66,3.29-6.34,6.87-12.29,10.7-17.76,.13-.19,.27-.38,.4-.57,3.88-5.48,8.02-10.48,12.39-14.93,.15-.15,.3-.3,.45-.45,4.35-4.38,8.93-8.22,13.7-11.43,.17-.11,.33-.22,.5-.33,4.6-3.05,9.38-5.53,14.31-7.37-4.89,1.84-9.64,4.32-14.2,7.38"/><path class="e" d="M120.64,8.29c-.2,.11-.41,.21-.61,.33-5.8,3.11-11.38,6.86-16.7,11.15-.19,.15-.37,.3-.55,.44-5.34,4.36-10.41,9.27-15.18,14.67-.17,.19-.33,.37-.49,.56-4.72,5.39-9.13,11.26-13.2,17.52-.14,.22-.28,.43-.42,.65-4.08,6.34-7.81,13.08-11.16,20.16-.11,.24-.23,.49-.34,.73-3.3,7.05-6.22,14.43-8.71,22.06-.09,.26-.17,.52-.26,.79-2.49,7.7-4.54,15.65-6.14,23.79-.05,.28-.11,.56-.16,.84-1.55,8.1-2.64,16.37-3.23,24.76-.02,.29-.04,.58-.06,.87-.56,8.44-.61,16.99-.12,25.57,.02,.3,.04,.59,.05,.89,.1,1.56,.21,3.11,.34,4.66,.23,2.72,.52,5.43,.85,8.04,.51,4.02,1.13,7.98,1.87,11.85,.05,.27,.1,.54,.16,.81,1.52,7.86,3.51,15.41,5.94,22.59,.09,.25,.17,.5,.26,.74,2.47,7.2,5.38,14.02,8.7,20.41,.11,.22,.23,.44,.35,.66,3.33,6.32,7.07,12.21,11.19,17.62,.14,.19,.29,.37,.43,.56,4.18,5.41,8.74,10.34,13.66,14.72,.17,.15,.34,.3,.51,.45,.69,.61,1.39,1.21,2.1,1.8,4.25,3.53,8.69,6.59,13.26,9.17,.19,.1,.37,.21,.55,.31,5.38,2.98,10.95,5.29,16.66,6.93,.2,.05,.39,.11,.59,.17,3.5,.97,7.04,1.69,10.62,2.15l-.34-.04c-3.55-.47-7.06-1.18-10.52-2.14-.2-.05-.39-.11-.59-.17-5.74-1.64-11.34-3.95-16.75-6.94-.19-.1-.37-.2-.56-.31-4.6-2.58-9.06-5.64-13.33-9.18-.71-.59-1.41-1.19-2.11-1.8-.17-.15-.34-.3-.51-.45-4.95-4.39-9.53-9.32-13.72-14.73-.15-.19-.29-.37-.43-.56-4.14-5.41-7.9-11.31-11.25-17.63-.12-.22-.23-.44-.35-.66-3.34-6.39-6.26-13.21-8.75-20.41-.08-.25-.17-.5-.25-.74-2.43-7.18-4.43-14.72-5.96-22.59-.05-.27-.11-.54-.16-.81-.74-3.88-1.36-7.83-1.87-11.85-.33-2.61-.62-5.31-.85-8.04-.13-1.56-.25-3.11-.34-4.66-.02-.3-.04-.6-.05-.89-.49-8.58-.43-17.13,.13-25.57,.02-.29,.04-.58,.06-.87,.6-8.38,1.7-16.66,3.26-24.75,.05-.28,.11-.56,.16-.84,1.6-8.13,3.68-16.09,6.18-23.78,.08-.27,.17-.53,.26-.79,2.52-7.63,5.45-15.01,8.77-22.06,.12-.24,.23-.49,.34-.73,3.37-7.07,7.12-13.81,11.23-20.15,.14-.22,.28-.43,.42-.65,4.1-6.26,8.54-12.13,13.28-17.52,.16-.19,.33-.37,.49-.56,4.8-5.39,9.9-10.3,15.27-14.65,.18-.15,.37-.3,.55-.45,5.35-4.28,10.96-8.02,16.8-11.14,.2-.11,.41-.21,.61-.32,5.63-2.95,11.46-5.33,17.46-7.07-5.97,1.74-11.77,4.12-17.37,7.08"/><path class="e" d="M117.97,7.85l-.7,.31c-6.71,2.97-13.16,6.56-19.32,10.71-.21,.14-.42,.29-.64,.43-6.19,4.22-12.08,9-17.62,14.26-.19,.18-.38,.36-.57,.54-5.48,5.26-10.63,11.01-15.38,17.16-.16,.21-.33,.42-.49,.64-4.76,6.23-9.13,12.86-13.07,19.84-.13,.24-.27,.48-.4,.72-3.88,6.96-7.32,14.25-10.29,21.81-.1,.26-.2,.52-.31,.78-2.95,7.62-5.41,15.51-7.34,23.59-.07,.28-.13,.55-.2,.83-1.88,8.04-3.24,16.28-4.03,24.63-.03,.28-.05,.58-.08,.86-.75,8.41-.92,16.94-.46,25.51,.02,.3,.03,.59,.05,.89,.09,1.55,.2,3.11,.33,4.66,.23,2.72,.52,5.43,.88,8.04,.53,4.03,1.2,7.99,1.99,11.88,.06,.27,.12,.54,.17,.81,1.65,7.89,3.84,15.46,6.54,22.69,.1,.25,.19,.5,.28,.74,2.75,7.24,6.01,14.12,9.74,20.58,.13,.22,.26,.45,.39,.67,3.75,6.38,7.97,12.36,12.64,17.86,.16,.19,.32,.38,.48,.57,4.73,5.51,9.91,10.54,15.51,15.03,.19,.15,.38,.31,.58,.46,.79,.63,1.58,1.24,2.39,1.84,4.84,3.63,9.89,6.79,15.11,9.48,.21,.11,.42,.21,.63,.32,6.14,3.1,12.51,5.55,19.05,7.32,.22,.06,.45,.12,.67,.18,1.42,.38,2.86,.72,4.3,1.03l-.46-.1c-1.35-.3-2.69-.62-4.03-.97-.22-.06-.45-.12-.68-.18-6.56-1.78-12.96-4.23-19.12-7.33-.21-.11-.42-.21-.63-.32-5.25-2.69-10.32-5.86-15.17-9.49-.81-.6-1.61-1.22-2.4-1.84-.19-.15-.39-.31-.58-.46-5.61-4.5-10.81-9.53-15.56-15.04-.16-.19-.33-.38-.49-.57-4.68-5.5-8.92-11.48-12.68-17.87-.13-.23-.26-.45-.39-.67-3.75-6.46-7.02-13.34-9.78-20.58-.1-.25-.19-.5-.28-.75-2.7-7.22-4.9-14.8-6.56-22.69-.06-.27-.11-.55-.17-.82-.8-3.89-1.47-7.85-2-11.87-.35-2.62-.65-5.32-.88-8.04-.13-1.55-.24-3.11-.34-4.66l-.05-.89c-.46-8.57-.28-17.1,.47-25.51,.03-.29,.05-.58,.08-.87,.79-8.35,2.16-16.58,4.05-24.62,.06-.27,.13-.56,.19-.83,1.95-8.08,4.42-15.96,7.39-23.58,.1-.26,.2-.52,.31-.78,2.98-7.55,6.44-14.84,10.33-21.8,.13-.24,.27-.48,.41-.72,3.95-6.98,8.34-13.61,13.13-19.83,.16-.21,.33-.42,.5-.64,4.78-6.15,9.94-11.89,15.45-17.15,.19-.18,.38-.36,.57-.54,5.57-5.26,11.48-10.04,17.69-14.25,.21-.14,.42-.29,.64-.43,6.19-4.15,12.67-7.73,19.4-10.7,.23-.11,.47-.2,.7-.31,6.49-2.81,13.21-5.03,20.12-6.62-6.88,1.59-13.57,3.82-20.04,6.64"/><path class="e" d="M115.84,7.26l-.78,.29c-7.42,2.77-14.58,6.17-21.41,10.14l-.71,.41c-6.86,4.03-13.4,8.63-19.56,13.73-.21,.18-.42,.35-.63,.52-6.1,5.1-11.82,10.68-17.13,16.68-.18,.21-.36,.42-.55,.63-5.31,6.07-10.19,12.57-14.59,19.42-.15,.24-.3,.47-.45,.71-4.34,6.83-8.2,14.01-11.54,21.46-.12,.26-.23,.51-.34,.77-3.32,7.52-6.11,15.32-8.32,23.32-.08,.27-.15,.55-.22,.82-2.15,7.97-3.72,16.14-4.66,24.45-.03,.29-.07,.58-.1,.86-.9,8.37-1.16,16.87-.73,25.44l.05,.89c.09,1.55,.2,3.11,.33,4.66,.23,2.72,.53,5.43,.9,8.04,.55,4.03,1.25,8,2.09,11.9,.06,.27,.12,.55,.18,.82,1.75,7.91,4.1,15.53,7.02,22.82,.1,.25,.2,.5,.3,.75,2.96,7.3,6.5,14.25,10.57,20.8,.14,.23,.28,.45,.42,.68,4.08,6.48,8.68,12.55,13.78,18.17,.18,.19,.35,.39,.53,.58,5.17,5.63,10.84,10.79,16.97,15.43,.21,.16,.42,.32,.63,.48,.87,.65,1.74,1.28,2.62,1.9,5.31,3.76,10.85,7.06,16.59,9.89,.23,.12,.46,.23,.7,.34,3.64,1.76,7.35,3.34,11.13,4.72l-.71-.26c-3.6-1.34-7.15-2.85-10.62-4.53-.23-.11-.47-.23-.7-.34-5.75-2.83-11.31-6.13-16.63-9.9-.88-.63-1.76-1.26-2.63-1.91-.21-.16-.42-.32-.64-.48-6.15-4.65-11.83-9.82-17.01-15.45-.18-.19-.35-.39-.53-.58-5.11-5.63-9.73-11.71-13.82-18.19-.14-.22-.28-.45-.42-.68-4.08-6.55-7.62-13.51-10.59-20.81-.1-.25-.2-.5-.3-.75-2.92-7.28-5.27-14.91-7.03-22.82-.06-.27-.12-.55-.18-.82-.84-3.9-1.54-7.87-2.1-11.9-.36-2.62-.66-5.32-.89-8.05-.13-1.56-.24-3.11-.33-4.66-.02-.3-.03-.59-.05-.89-.43-8.57-.17-17.07,.74-25.44,.03-.29,.06-.57,.1-.86,.94-8.31,2.52-16.48,4.68-24.44,.07-.27,.15-.55,.22-.82,2.21-8,5.01-15.8,8.34-23.31,.11-.26,.23-.51,.35-.77,3.35-7.45,7.23-14.62,11.58-21.45,.15-.24,.3-.47,.45-.7,4.41-6.85,9.31-13.34,14.63-19.41,.19-.21,.37-.42,.55-.63,5.32-6,11.06-11.58,17.18-16.67,.21-.18,.42-.35,.64-.52,6.18-5.09,12.74-9.68,19.62-13.71,.24-.14,.47-.28,.71-.41,6.86-3.96,14.03-7.35,21.47-10.12,.26-.1,.52-.19,.78-.29,7.17-2.62,14.6-4.64,22.22-6.03-7.61,1.39-15.01,3.43-22.17,6.05"/><path class="e" d="M114.37,6.54c-.28,.09-.55,.18-.83,.26-7.92,2.53-15.56,5.69-22.86,9.43-.25,.13-.5,.26-.75,.39-7.33,3.8-14.32,8.18-20.91,13.07-.23,.17-.46,.34-.68,.5-6.52,4.89-12.65,10.28-18.33,16.09-.2,.2-.39,.4-.59,.61-5.69,5.89-10.93,12.21-15.65,18.9-.16,.23-.32,.46-.48,.69-4.66,6.67-8.82,13.71-12.41,21.04-.12,.25-.25,.5-.37,.76-3.58,7.39-6.59,15.08-8.98,22.99-.08,.27-.16,.55-.24,.82-2.34,7.88-4.05,15.98-5.1,24.24-.04,.28-.07,.57-.11,.86-1.01,8.32-1.33,16.79-.92,25.35,.02,.3,.03,.59,.04,.89,.09,1.55,.19,3.1,.33,4.66,.23,2.72,.53,5.43,.91,8.06,.57,4.04,1.29,8.02,2.17,11.93,.06,.27,.12,.55,.19,.82,1.82,7.94,4.28,15.62,7.34,22.98,.11,.25,.21,.51,.32,.76,3.12,7.38,6.85,14.42,11.14,21.08,.15,.23,.3,.46,.45,.69,4.31,6.59,9.18,12.8,14.58,18.57,.19,.2,.37,.4,.56,.59,5.48,5.78,11.48,11.11,17.99,15.93,.22,.17,.44,.33,.67,.5,.92,.67,1.84,1.34,2.78,1.98,.07,.05,.14,.1,.21,.15l-.24-.17-1.43-1c-.49-.35-.98-.71-1.47-1.07-.23-.16-.45-.33-.67-.5-6.52-4.83-12.54-10.17-18.02-15.95-.19-.2-.37-.4-.56-.6-5.41-5.77-10.29-11.99-14.6-18.58-.15-.23-.3-.46-.45-.69-4.3-6.66-8.03-13.71-11.16-21.09-.11-.25-.21-.51-.32-.76-3.06-7.36-5.52-15.04-7.35-22.98-.06-.27-.12-.55-.19-.82-.88-3.92-1.6-7.9-2.17-11.94-.37-2.62-.68-5.33-.91-8.05-.13-1.56-.24-3.11-.32-4.66-.02-.3-.03-.59-.04-.89-.41-8.56-.08-17.03,.93-25.35,.04-.28,.07-.57,.11-.85,1.05-8.25,2.77-16.35,5.1-24.23,.08-.27,.16-.54,.25-.81,2.4-7.91,5.41-15.6,9-22.98,.12-.25,.25-.5,.37-.76,3.6-7.32,7.77-14.35,12.43-21.02l.49-.69c4.73-6.68,9.98-13,15.68-18.89,.19-.2,.39-.4,.59-.6,5.69-5.81,11.83-11.19,18.36-16.07,.23-.17,.45-.34,.68-.5,6.6-4.88,13.61-9.25,20.95-13.04,.26-.13,.5-.26,.76-.39,7.32-3.73,14.97-6.89,22.9-9.4,.28-.09,.56-.18,.83-.26,7.65-2.38,15.56-4.17,23.68-5.3-8.11,1.14-16,2.94-23.64,5.33"/><path class="e" d="M113.63,5.71c-.28,.08-.57,.15-.86,.23-8.17,2.25-16.05,5.14-23.59,8.62-.26,.12-.52,.24-.78,.36-7.57,3.54-14.78,7.66-21.59,12.31l-.7,.48c-6.73,4.65-13.07,9.81-18.94,15.42-.2,.19-.41,.39-.61,.58-5.88,5.68-11.29,11.8-16.18,18.31-.17,.22-.34,.44-.5,.67-4.82,6.49-9.12,13.37-12.85,20.55-.13,.25-.26,.5-.38,.74-3.71,7.25-6.83,14.81-9.32,22.62-.09,.27-.17,.54-.25,.81-2.43,7.78-4.22,15.8-5.32,23.99-.04,.28-.08,.57-.11,.85-1.06,8.26-1.42,16.69-1.02,25.24,.02,.3,.03,.59,.04,.89,.08,1.55,.19,3.1,.32,4.65,.23,2.72,.54,5.43,.91,8.06,.57,4.05,1.31,8.04,2.2,11.98,.06,.28,.13,.55,.19,.83,1.68,7.21,3.9,14.22,6.62,20.99l-1.45-3.75c-2.1-5.65-3.85-11.47-5.23-17.41-.07-.27-.13-.55-.19-.83-.89-3.94-1.63-7.93-2.2-11.98-.38-2.63-.68-5.34-.91-8.06-.13-1.56-.24-3.11-.32-4.65-.02-.3-.03-.59-.04-.89-.4-8.55-.04-16.98,1.02-25.24,.04-.28,.07-.57,.11-.85,1.1-8.19,2.89-16.21,5.32-23.98,.08-.27,.17-.54,.26-.81,2.48-7.8,5.61-15.36,9.32-22.6,.13-.25,.26-.5,.38-.74,3.73-7.18,8.03-14.04,12.85-20.53,.17-.23,.34-.45,.5-.67,4.89-6.5,10.31-12.62,16.19-18.29,.2-.19,.4-.39,.61-.58,5.87-5.6,12.21-10.75,18.95-15.39l.7-.48c6.81-4.64,14.03-8.75,21.6-12.28,.26-.12,.52-.24,.78-.36,7.54-3.46,15.43-6.35,23.6-8.58,.28-.08,.57-.16,.85-.23,7.88-2.11,16.03-3.62,24.39-4.47-8.36,.86-16.5,2.38-24.38,4.5"/><path class="e" d="M113.66,4.84c-.29,.06-.57,.13-.85,.2-8.16,1.95-16.03,4.56-23.56,7.76-.26,.11-.52,.22-.78,.33-7.55,3.26-14.76,7.12-21.56,11.51-.23,.15-.47,.3-.7,.45-6.72,4.4-13.05,9.32-18.91,14.7-.2,.19-.4,.37-.6,.56-5.87,5.45-11.28,11.37-16.16,17.68-.17,.21-.34,.43-.5,.65-4.81,6.3-9.11,13-12.83,20.03l-.38,.73c-1.41,2.7-2.73,5.44-3.97,8.23l1.27-2.79c.88-1.88,1.8-3.75,2.77-5.59,.12-.24,.25-.49,.38-.73,3.72-7.02,8.01-13.71,12.82-20.01,.17-.22,.34-.43,.5-.65,4.88-6.31,10.28-12.22,16.15-17.66,.2-.19,.4-.37,.61-.56,5.86-5.37,12.18-10.29,18.9-14.68,.23-.15,.46-.3,.7-.45,6.79-4.38,14-8.23,21.55-11.48,.26-.11,.52-.22,.78-.33,7.52-3.19,15.39-5.78,23.55-7.73,.28-.07,.57-.13,.85-.2,7.86-1.83,15.99-3.04,24.34-3.6-8.35,.57-16.48,1.79-24.35,3.63"/><path class="e" d="M114.41,3.93c-.27,.05-.55,.11-.83,.17-7.91,1.65-15.53,3.95-22.82,6.86-.25,.1-.5,.2-.75,.3-7.32,2.97-14.29,6.55-20.87,10.68-.23,.14-.45,.28-.68,.42-4.96,3.15-9.69,6.61-14.16,10.36l.81-.67,.36-.3c4.16-3.41,8.54-6.57,13.1-9.47,.22-.14,.45-.28,.67-.42,6.57-4.12,13.54-7.69,20.84-10.65,.25-.1,.5-.2,.75-.3,7.28-2.9,14.89-5.2,22.79-6.84,.27-.05,.55-.11,.83-.17,7.61-1.53,15.48-2.44,23.56-2.69-8.09,.26-15.97,1.18-23.6,2.72"/><g><path class="b" d="M122.99,118.57c3.51,0,6.35,2.84,6.35,6.35s-2.84,6.35-6.35,6.35-6.35-2.84-6.35-6.35,2.84-6.35,6.35-6.35m-1.14,29.91c.63,1.3,1.65,1.3,2.27,0,2.69-5.58,9.24-19.18,9.44-19.75l.04-.09c.41-1.17,.64-2.41,.64-3.72,0-6.22-5.04-11.26-11.26-11.26s-11.26,5.04-11.26,11.26c0,.92,.12,1.81,.33,2.67v.05c.3,1.16,7.05,15.18,9.79,20.85"/><path class="b" d="M122.99,132.76c4.27,0,7.73-3.46,7.73-7.73s-3.46-7.73-7.73-7.73-7.73,3.46-7.73,7.73,3.46,7.73,7.73,7.73"/></g><path class="d" d="M122.99,132.76c4.27,0,7.73-3.46,7.73-7.73s-3.46-7.73-7.73-7.73-7.73,3.46-7.73,7.73,3.46,7.73,7.73,7.73Z"/></svg>