<?xml version="1.0" encoding="UTF-8"?><svg id="a" xmlns="http://www.w3.org/2000/svg" viewBox="0 0 223.7 60.34"><defs><style>.b{stroke:#6b6d71;}.b,.c{fill:none;stroke-miterlimit:10;stroke-width:2px;}.d{fill:#0272bc;}.e{fill:#1a940b;}.f{fill:#6b6d71;font-family:BarlowSemiCondensed-ExtraBold, Barlow Semi Condensed;font-size:12px;}.g{fill:#189308;}.h{fill:#179308;}.i{fill:#0071bc;}.c{stroke:#be2126;}.j{fill:#0271bc;}.k{fill:#be2126;}</style></defs><g><g><path class="d" d="M39.57,17.02c0,2.05-1.76,3.69-3.92,3.67-2-.02-3.69-1.74-3.68-3.74,0-1.98,1.99-3.87,4.04-3.87,1.94,0,3.57,1.8,3.56,3.94Z"/><g><g><path class="k" d="M46.5,31.2c0,1.09-.47,2.07-.9,3.03-3.28,7.51-8.77,12.64-16.83,14.41-8.28,1.82-15.54-.53-21.55-6.53C2.91,37.82,.71,32.55,.17,26.55c-.01-.15,.04-.34-.17-.41v-3.45c.39-1.13,.39-2.33,.63-3.49C2.43,10.58,9.64,1.92,20.35,.26c2.09-.32,4.19-.34,6.42-.08-.45,.37-.89,.33-1.29,.42-.4,.1-.81,.16-1.21,.25-6.2,1.37-10.78,4.92-13.62,10.52-3.71,7.32-3.43,14.64,.88,21.63,4.85,7.86,14.18,11.18,22.79,8.53,.1-.03,.2-.09,.3-.14,1.01-.31,2.04-.58,2.89-1.28,.12-.04,.28,0,.33-.17,.3,.02,.51-.16,.75-.29,1.42-.83,2.67-1.88,3.84-3.03,1.63-1.61,2.9-3.46,4.05-5.41Z"/><path class="j" d="M46.5,31.2c-1.15,1.95-2.43,3.81-4.05,5.41-1.17,1.16-2.42,2.2-3.84,3.03-.23,.14-.45,.32-.75,.29,.02-.1,0-.22,.05-.3,1.92-3.29,.81-7-1.86-9.4-.84-.75-1.78-1.37-2.75-1.93-.83-.47-1.67-.93-2.5-1.41-.41-.23-.77-.52-1.09-.86-.43-.47-.52-.99-.35-1.6,.18-.63,.69-.83,1.24-.91,1.07-.15,2.13-.05,3.2,.06,1.15,.12,2.31,.2,3.45,.03,3.55-.53,5.6-3.39,5.14-7.04-.33-2.7-1.39-5.09-2.93-7.3-.42-.61-.88-1.2-1.08-1.92-.12-.41-.24-.88,.16-1.22,.35-.3,.77-.21,1.17-.08,.99,.33,1.79,.94,2.5,1.68,3.27,3.39,5.06,7.46,5.69,12.09,.1,.74-.01,1.5,.31,2.21v1.31c-.33,.86-.23,1.78-.37,2.67-.28,1.77-.72,3.5-1.34,5.18Z"/><path class="h" d="M37.52,40.11c-.84,.69-1.87,.97-2.89,1.28-1.62-2.6-4-4.22-6.84-5.23-1.62-.58-3.25-1.15-4.88-1.69-6.13-2.06-9.62-6.39-10.88-12.62-.07-.34-.24-.67-.14-1.09,1.24,.45,2.14,1.28,2.92,2.28,.71,.91,1.26,1.92,1.82,2.92,.76,1.38,1.81,2.45,3.16,3.25,2.01,1.19,4.09,2.2,6.43,2.58,.29,.05,.59,.06,.9,.09,.08-.41-.22-.57-.41-.77-.62-.67-1.38-1.15-2.21-1.54-.92-.43-1.85-.83-2.74-1.31-2.12-1.15-2.08-3.04-1.65-4.91,.12-.53,.43-.11,.6,0,1.45,.98,2.92,1.93,4.45,2.78,1.75,.98,3.61,1.69,5.45,2.47,.78,.33,1.54,.71,2.26,1.15,3.97,2.4,5.41,5.57,4.58,10.12-.02,.11-.08,.19,.05,.25Z"/><path class="g" d="M28.53,24.18c-3.9-1.94-5.9-4.88-5.93-9.1-.7,3.56,1,6.28,3.27,8.87-.49,.16-.87,0-1.16-.24-.98-.79-2.01-1.54-2.87-2.46-1.64-1.76-2.1-3.93-1.71-6.26,.42-2.5,1.58-4.64,3.51-6.32,.17-.14,.33-.29,.51-.42,.45-.32,.97-.78,1.46-.6,.47,.17,.29,.86,.34,1.32,.15,1.45,.75,2.75,1.36,4.01,.95,1.95,1.22,3.96,.79,6.05-.31,1.51-.33,2.98,.31,4.41,.07,.17,.06,.37,.11,.73Z"/></g><path class="e" d="M19.08,27.48c-1.02-.59-1.81-1.26-2.14-2.29-.92-2.85-1.79-5.71-2.69-8.63,1.05,.28,1.94,.98,2.72,2.06,1.19,1.67,1.68,3.59,1.96,5.58,.15,1.05,.24,2.11,.16,3.28Z"/></g></g><g><path class="i" d="M8.07,59.66c-.47-.46-.7-1.07-.7-1.84,0-.09,0-.25,.03-.47l.47-3.87c.08-.58,.26-1.1,.56-1.56s.69-.8,1.17-1.05,1.01-.37,1.59-.37c.82,0,1.46,.23,1.93,.69s.71,1.07,.71,1.84c0,.08,0,.23-.03,.45l-.48,3.87c-.08,.6-.26,1.12-.56,1.57s-.69,.8-1.17,1.05-1.02,.37-1.61,.37c-.8,0-1.44-.23-1.91-.69Zm3.18-1.12c.3-.29,.47-.66,.53-1.12l.49-3.98c0-.05,.01-.14,.01-.25,0-.4-.12-.72-.34-.96s-.54-.36-.92-.36c-.42,0-.78,.14-1.07,.43s-.47,.67-.54,1.13l-.48,3.98c0,.06-.01,.16-.01,.27,0,.38,.11,.69,.33,.93s.52,.35,.91,.35c.43,0,.8-.14,1.09-.43Z"/><path class="i" d="M19.91,50.66s.07-.05,.12-.05h1.22s.08,.01,.11,.05,.03,.07,.03,.12l-1.14,9.28s-.03,.08-.06,.12c-.03,.03-.07,.05-.12,.05h-1.22s-.08-.01-.11-.05c-.03-.03-.03-.07-.03-.12l.48-3.9s-.02-.07-.07-.07h-2.52s-.07,.02-.07,.07l-.48,3.9s-.03,.08-.06,.12c-.03,.03-.07,.05-.12,.05h-1.23s-.08-.01-.11-.05c-.03-.03-.03-.07-.03-.12l1.14-9.28s.03-.08,.06-.12,.07-.05,.12-.05h1.23s.08,.01,.11,.05c.03,.03,.03,.07,.03,.12l-.48,3.86s.02,.07,.05,.07h2.54s.07-.02,.07-.07l.48-3.86s.03-.08,.06-.12Z"/><path class="i" d="M22.55,59.72c-.47-.4-.71-.95-.71-1.64,0-.08,0-.21,.03-.37l.04-.36s.03-.08,.06-.12,.07-.05,.12-.05h1.21s.08,.01,.11,.05,.03,.07,.03,.12l-.04,.27s-.01,.11-.01,.19c0,.34,.12,.61,.36,.82s.56,.32,.97,.32c.45,0,.8-.13,1.06-.38s.39-.58,.39-.97c0-.3-.11-.56-.34-.76s-.63-.48-1.23-.82c-.47-.27-.84-.5-1.13-.71s-.53-.47-.72-.79-.29-.69-.29-1.12c0-.06,0-.18,.03-.34,.1-.79,.43-1.41,1-1.87s1.27-.69,2.1-.69,1.43,.21,1.9,.62,.71,.97,.71,1.68c0,.08,0,.21-.03,.4l-.03,.29s-.03,.08-.06,.12-.07,.05-.12,.05h-1.21s-.08-.01-.11-.05c-.03-.03-.03-.07-.03-.12l.03-.26s.01-.12,.01-.21c0-.34-.11-.62-.34-.83s-.54-.32-.93-.32-.7,.1-.95,.31c-.25,.21-.39,.49-.44,.86,0,.05-.01,.1-.01,.18,0,.3,.11,.54,.34,.75s.64,.47,1.24,.8c.56,.35,.97,.62,1.22,.81,.25,.19,.47,.43,.66,.73s.27,.64,.27,1.04c0,.06,0,.18-.03,.34-.1,.8-.44,1.45-1.02,1.92s-1.31,.71-2.19,.71c-.82,0-1.47-.21-1.94-.61Z"/><path class="i" d="M28.77,60.17s-.03-.07-.03-.12l1.14-9.28s.03-.08,.06-.12,.07-.05,.12-.05h2.76c.78,0,1.39,.21,1.85,.62,.46,.42,.69,.97,.69,1.68,0,.09,0,.23-.03,.41l-.51,4.17c-.1,.82-.44,1.48-1.02,1.98s-1.3,.74-2.16,.74h-2.76s-.08-.01-.11-.05Zm1.74-1.32h1.32c.39-.01,.72-.15,.98-.42,.26-.27,.43-.64,.5-1.1l.47-3.81c.02-.14,.03-.25,.03-.3,0-.38-.1-.67-.3-.89-.2-.22-.47-.33-.82-.33h-1.32s-.06,.02-.08,.07l-.82,6.72s.01,.07,.05,.07Z"/><path class="i" d="M40.6,60.08l-.18-1.47s-.02-.05-.05-.05h-2.74s-.06,.02-.07,.05l-.51,1.47c-.03,.09-.1,.14-.21,.14h-1.26c-.13,0-.16-.06-.11-.18l3.55-9.29c.03-.09,.1-.14,.21-.14h1.52c.1,0,.16,.05,.16,.14l1.28,9.29v.04c0,.09-.05,.14-.15,.14h-1.28c-.1,0-.15-.05-.16-.14Zm-2.55-2.79s.03,.02,.05,.02h2.1c.05,0,.08-.03,.08-.08l-.55-4.5s0-.04-.03-.04-.03,.01-.04,.04l-1.62,4.5s-.01,.05,0,.06Z"/></g></g><g><text class="f" transform="translate(65.46 33.78)"><tspan x="0" y="0">Empowerment of People in Need</tspan></text><line class="b" x1="61.97" y1="30.17" x2="61.97" y2="37.96"/><line class="c" x1="61.97" y1="22.38" x2="61.97" y2="30.17"/></g></svg>