<?xml version="1.0" encoding="utf-8"?>
<!-- Generator: Adobe Illustrator 26.2.1, SVG Export Plug-In . SVG Version: 6.00 Build 0)  -->
<svg version="1.1" id="Layer_1" xmlns="http://www.w3.org/2000/svg" xmlns:xlink="http://www.w3.org/1999/xlink" x="0px" y="0px"
	 viewBox="0 0 595.28 841.89" style="enable-background:new 0 0 595.28 841.89;" xml:space="preserve">
<style type="text/css">
	.st0{fill:#BE1622;}
</style>
<g>
	<path class="st0" d="M377.32,248.76c0-32.7-26.5-59.2-59.2-59.2c-18.83,0-35.59,8.82-46.42,22.52l-0.32,0.14
		c-10.04-10-21.39-15.86-31.78-19.31c0.05-0.03,0.09-0.07,0.14-0.1c-6.03-2.08-12.47-3.26-19.21-3.26
		c-32.7,0-59.21,26.51-59.21,59.2c0,6.03,0.92,11.85,2.59,17.33c0.01-0.01,0.03-0.03,0.04-0.04c4.7,16.85,14.34,27.42,17.36,30.03
		l12.79,12.23l0.76,0.74l-0.79,0.81c-3.84,3.93-3.76,10.24,0.17,14.07c3.93,3.84,10.23,3.76,14.07-0.17l0.83-0.82
		c0.09-0.08,0.21-0.13,0.34-0.13c0.3,0,0.54,0.24,0.54,0.55c0,0.12-0.05,0.23-0.12,0.33l0.01,0.01l-0.79,0.81
		c-3.85,3.93-3.76,10.24,0.17,14.07c3.93,3.84,10.23,3.77,14.07-0.17l0.78-0.76c0.1-0.12,0.24-0.19,0.41-0.19
		c0.3,0,0.55,0.24,0.55,0.54c0,0.13-0.05,0.25-0.13,0.34l0,0l-0.01,0.01c-0.01,0.01-0.02,0.03-0.03,0.04l-0.75,0.76
		c-3.84,3.93-3.76,10.23,0.17,14.07c3.94,3.84,10.23,3.77,14.07-0.16l0.81-0.84l0.01,0.02c0.09-0.07,0.2-0.12,0.33-0.12
		c0.3,0,0.55,0.24,0.55,0.55c0,0.12-0.05,0.22-0.12,0.32l0.01,0.01l-0.04,0.04c-0.01,0.01-0.01,0.01-0.02,0.02l-0.73,0.75
		c-3.84,3.93-3.76,10.23,0.17,14.07c3.93,3.84,10.24,3.76,14.07-0.17l0.94-0.96l-0.27,0.34l13.23,12.6
		c3.56,3.39,8.22,5.25,13.13,5.25h0.25c5.18-0.07,10.01-2.18,13.58-5.93c3.47-3.65,5.32-8.62,5.16-13.74
		c0.21,0.01,0.43,0.02,0.69,0.01c5.17-0.06,9.99-2.17,13.56-5.92c3.45-3.63,5.28-8.37,5.19-13.44c0.23,0.01,0.52,0.01,0.78,0.01
		c5.18-0.07,10-2.18,13.57-5.93c3.47-3.65,5.33-8.62,5.16-13.74c0.21,0.01,0.49,0.02,0.68,0.01c5.18-0.07,9.99-2.18,13.56-5.93
		c6.56-6.88,6.91-17.44,1.26-24.77C367.71,284.72,377.32,267.63,377.32,248.76L377.32,248.76z M344.96,313
		c-1.53,1.61-3.76,2.53-6.12,2.53c-2.22,0-4.27-0.79-5.78-2.23l-13.96-13.04c-0.89-0.65-1.97-1.05-3.16-1.05
		c-2.96,0-5.37,2.41-5.37,5.37c0,1.71,0.82,3.22,2.08,4.21l12.61,11.95c3.36,3.2,3.5,8.54,0.3,11.9c-1.53,1.61-3.76,2.54-6.12,2.54
		c-2.21,0-4.27-0.79-5.78-2.23l-13.48-12.94l-0.01,0.01c-0.96-0.87-2.23-1.43-3.62-1.43c-2.96,0-5.37,2.41-5.37,5.38
		c0,1.43,0.57,2.72,1.49,3.69l-0.01,0.01l13.09,12.44c3.33,3.2,3.45,8.54,0.28,11.88c-1.53,1.6-3.76,2.52-6.12,2.52
		c-2.22,0-4.27-0.79-5.78-2.23l-13.3-12.56l-0.01,0.01c-0.97-0.99-2.32-1.61-3.82-1.61c-2.97,0-5.37,2.41-5.37,5.38
		c0,1.57,0.68,2.96,1.75,3.94l12.93,12.28c3.36,3.2,3.5,8.55,0.3,11.91c-1.53,1.61-3.76,2.53-6.12,2.53c-2.22,0-4.27-0.79-5.78-2.23
		l-13.17-12.53l0.79-0.8c3.84-3.94,3.76-10.24-0.17-14.08c-3.93-3.84-10.23-3.76-14.08,0.17l-0.45,0.46l-0.01-0.02
		c-0.1,0.11-0.24,0.18-0.41,0.18c-0.3,0-0.54-0.24-0.54-0.54c0-0.17,0.08-0.32,0.2-0.42l0.4-0.41c3.84-3.94,3.76-10.24-0.17-14.08
		c-3.93-3.85-10.23-3.76-14.08,0.17l-0.47,0.48l-0.01-0.01c-0.09,0.07-0.2,0.12-0.33,0.12c-0.3,0-0.54-0.24-0.54-0.54
		c0-0.12,0.04-0.23,0.12-0.32l-0.01-0.01l0.04-0.04c0.01-0.01,0.01-0.02,0.02-0.02l0.39-0.4c3.84-3.94,3.76-10.24-0.17-14.08
		c-3.93-3.84-10.23-3.76-14.08,0.17l-0.51,0.49c-0.1,0.13-0.25,0.22-0.42,0.22c-0.3,0-0.54-0.25-0.54-0.54
		c0-0.17,0.08-0.32,0.21-0.41l0.48-0.49c3.84-3.94,3.76-10.24-0.18-14.08c-3.93-3.84-10.23-3.76-14.08,0.17l-0.51,0.52l-13.85-13.42
		c-0.14-0.12-10.31-9.06-15.03-28.48c0.04-0.01,0.07-0.03,0.11-0.04c-0.77-3.41-1.22-6.95-1.22-10.59
		c0-26.52,21.57-48.09,48.09-48.09c3.95,0,7.77,0.53,11.44,1.44c0,0,0-0.01,0-0.01c9.42,2.59,20.17,7.32,29.68,16.02L212.7,266.6v0
		c-1.99,1.87-3.25,4.51-3.25,7.45c0,5.67,4.59,10.26,10.26,10.26c0.29,0,0.56-0.06,0.84-0.09c0.01,0.02,0.01,0.03,0.02,0.04
		c0.22-0.03,0.44-0.08,0.67-0.11c0.27-0.04,0.53-0.08,0.8-0.13c8.15-1.61,23.51-17.97,37.5-26.73c7.89-4.87,12.59-6.41,21.25-6.41
		c7.21,0,13.76,2.73,18.74,7.19c0.6,0.44,1.22,0.98,1.92,1.67l29.93,28.74l-0.01,0.03l13.01,12.46
		C347.74,304.18,348.15,309.65,344.96,313L344.96,313z"/>
</g>
</svg>
